<svg xmlns="http://www.w3.org/2000/svg" width="1500" height="650" viewBox="0 0 1500 650">
<rect width="100%" height="100%" fill="#f8fafc"/>
<text x="28.0" y="42.0" font-family="Inter, Arial, sans-serif" font-size="24" font-weight="700" fill="#111827">Canada 2025: real FastF1 position traces against f1-circuits GPS</text>
<text x="28.0" y="68.0" font-family="Inter, Arial, sans-serif" font-size="14" font-weight="400" fill="#475569">Gray is the repository GPS outline. Color is FastF1 projected with one transform learned from clean RUS lap 63.</text>
<rect x="26" y="92" width="448" height="500" rx="10" fill="#ffffff" stroke="#cbd5e1"/>
<text x="46.0" y="126.0" font-family="Inter, Arial, sans-serif" font-size="17" font-weight="700" fill="#111827">Fastest valid lap</text>
<text x="46.0" y="148.0" font-family="Inter, Arial, sans-serif" font-size="13" font-weight="400" fill="#475569">RUS lap 63, race fastest lap</text>
<polyline points="276.7,366.4 279.7,380.3 282.0,390.6 283.2,398.2 283.4,404.5 281.4,421.2 281.8,423.2 283.1,424.5 288.1,426.7 289.1,427.4 289.6,428.9 289.4,430.4 288.7,431.8 287.3,433.0 285.6,433.6 283.4,433.6 281.0,433.1 275.1,431.4 271.1,430.1 267.3,428.0 263.7,425.6 255.3,418.4 250.3,413.8 249.4,412.3 249.1,411.1 249.2,409.9 250.1,407.2 250.4,405.6 250.2,404.3 249.6,403.1 240.0,391.5 238.3,390.0 235.1,387.7 233.2,386.1 231.1,383.3 229.9,380.3 229.1,377.3 228.8,374.8 228.8,356.6 228.8,355.1 228.2,353.9 227.0,353.0 225.0,352.5 222.2,353.2 220.6,353.4 218.7,352.8 217.0,351.8 215.9,350.6 214.8,349.2 214.2,348.0 213.3,345.4 212.5,342.3 211.7,338.4 211.5,335.2 210.4,321.2 210.5,313.7 210.7,307.6 211.2,301.0 211.9,295.7 212.7,291.6 217.6,271.7 218.4,269.9 219.6,269.2 220.8,269.0 222.6,268.8 224.0,268.3 225.4,267.6 226.8,266.0 228.0,264.2 229.0,261.8 233.8,242.0 235.8,231.2 236.4,223.7 236.7,216.0 236.6,213.4 236.3,210.8 232.8,193.2 232.6,192.1 232.8,191.2 233.6,190.3 235.2,190.0 236.2,190.3 236.9,191.1 237.1,191.8 237.5,195.7 238.1,201.7 238.3,203.7 239.1,205.9 241.7,211.2 244.0,215.9 255.5,245.7 256.9,249.6 274.0,331.5 274.7,334.9 274.5,336.0 273.7,336.9 272.4,337.4 271.5,338.3 271.2,339.3 271.2,340.6 274.3,354.8 276.7,366.4" fill="none" stroke="#94a3b8" stroke-width="3.0" stroke-linejoin="round" stroke-linecap="round" opacity="0.85"/>
<polyline points="283.1,393.8 283.0,406.3 282.6,410.0 282.2,413.0 281.8,415.6 281.7,418.5 281.7,419.8 282.0,421.8 282.3,422.6 282.4,422.9 283.0,423.9 283.9,424.8 284.9,425.6 285.6,426.1 286.2,426.5 287.0,427.0 287.8,427.4 288.8,428.4 289.1,429.2 289.2,429.7 289.1,430.7 288.9,431.2 288.7,431.6 288.2,432.4 287.9,432.9 287.4,433.3 286.7,433.6 286.1,433.8 284.7,434.0 283.6,434.0 282.4,434.0 281.0,433.8 279.9,433.6 278.2,433.2 277.6,433.0 276.7,432.7 274.6,432.0 273.4,431.6 271.9,431.0 271.1,430.7 269.7,430.0 266.8,428.2 265.8,427.5 264.2,426.4 263.3,425.7 261.8,424.5 260.2,423.2 259.0,422.2 257.6,421.1 255.4,419.2 253.5,417.6 252.2,416.3 250.9,414.9 250.5,414.3 250.0,413.5 249.5,412.4 249.4,410.8 249.6,409.7 249.8,408.1 249.0,403.3 248.4,402.2 247.7,401.2 246.3,399.5 245.4,398.3 244.1,396.7 243.2,395.5 242.1,394.2 240.3,392.3 238.4,390.7 236.5,389.1 235.4,388.2 233.0,386.0 231.1,383.2 230.0,380.7 228.9,376.8 228.7,374.7 228.6,372.1 228.7,369.7 228.8,367.3 228.9,365.7 229.0,364.2 229.2,361.6 229.2,360.4 229.0,358.0 228.6,356.4 228.3,355.6 227.7,354.8 226.6,353.8 225.8,353.4 224.5,353.1 223.8,353.1 223.2,353.2 222.1,353.2 221.4,353.3 220.1,353.2 218.8,352.9 217.3,352.1 216.6,351.5 215.8,350.7 215.1,349.8 214.6,349.1 214.1,348.3 213.3,346.5 213.0,345.4 212.4,343.3 212.2,342.1 211.9,339.7 211.8,338.3 211.5,335.2 211.3,333.4 211.2,331.6 211.0,328.9 210.9,327.3 210.8,325.3 210.6,322.2 210.5,320.3 210.5,317.2 210.5,314.2 210.5,312.4 210.5,310.6 210.6,308.3 210.7,306.9 210.9,304.7 211.1,302.5 211.6,298.2 212.0,295.4 212.4,293.3 213.2,289.2 213.3,288.7 214.1,285.3 214.8,282.9 215.7,279.3 216.2,277.3 216.5,275.9 216.9,274.2 217.3,273.1 217.8,271.5 218.2,270.8 219.2,269.8 220.1,269.3 220.9,269.1 222.2,268.8 224.1,268.0 224.8,267.6 226.9,265.7 227.7,264.7 228.3,263.6 229.2,261.6 229.6,260.4 230.0,259.0 230.7,256.7 231.2,254.7 231.5,253.4 232.1,251.4 232.9,247.9 233.4,245.7 233.8,243.4 234.1,241.9 234.6,239.0 234.9,236.8 235.5,232.7 235.7,231.6 235.9,229.1 236.1,226.1 236.3,223.2 236.3,221.4 236.4,218.3 236.4,217.1 236.3,214.5 236.1,212.6 235.9,210.6 235.2,207.2 234.7,204.6 234.2,202.5 233.5,199.1 233.2,197.5 233.0,196.4 232.7,194.4 232.6,193.6 232.7,192.8 232.9,191.8 233.6,190.9 233.9,190.7 234.9,190.4 235.4,190.4 236.0,190.6 236.3,190.9 236.5,191.0 236.9,191.4 237.3,192.2 237.5,192.6 237.8,193.3 238.1,194.3 238.3,195.7 238.4,196.4 238.5,197.1 238.6,198.8 238.7,200.6 238.8,201.0 238.9,202.1 239.4,204.6 239.8,206.1 240.3,207.8 241.1,209.7 241.7,211.3 242.5,213.3 243.6,216.1 244.3,217.8 245.1,219.7 245.9,221.8 247.4,225.4 248.2,227.3 249.6,230.6 250.6,233.1 251.6,235.7 252.4,237.9 253.6,240.9 254.1,242.4 254.8,244.3 255.6,246.8 256.1,248.6 257.1,252.1 257.5,253.5 257.9,255.3 258.9,259.4 259.6,262.4 259.8,263.3 260.4,266.2 261.3,270.1 262.1,273.9 262.8,277.2 263.3,279.8 263.8,281.9 264.2,283.6 264.8,286.6 265.2,288.3 265.6,290.4 266.3,293.4 266.9,296.4 267.4,299.2 268.2,302.9 268.8,305.5 269.7,309.6 270.7,314.3 271.4,317.3 271.9,319.5 273.7,327.8 274.0,329.4 274.4,331.8 274.6,333.2 274.4,334.9 274.2,335.6 273.6,336.9 272.9,337.8 272.3,339.1 272.0,340.0 271.8,341.2 271.7,343.4 271.8,344.6 271.9,345.6 272.3,347.6 272.6,349.0 272.9,350.4 273.2,351.5 273.6,353.1 274.0,354.4 274.3,355.6 274.7,357.2 275.6,360.5 276.3,363.7 276.5,364.2 276.9,366.1 277.3,367.7 278.0,370.9 278.4,372.5 279.1,375.2 279.4,376.7 280.0,379.2 280.8,382.2 280.9,382.7 282.0,387.4 282.3,389.2 282.6,390.8" fill="none" stroke="#059669" stroke-width="3.2" stroke-linejoin="round" stroke-linecap="round" opacity="0.95"/>
<circle cx="283.1" cy="393.8" r="4.5" fill="#111827"/>
<circle cx="282.6" cy="390.8" r="4.5" fill="#64748b"/>
<text x="46.0" y="484.0" font-family="Inter, Arial, sans-serif" font-size="13" font-weight="400" fill="#111827">time: 74.119s</text>
<text x="46.0" y="508.0" font-family="Inter, Arial, sans-serif" font-size="13" font-weight="400" fill="#111827">length: 4312.0 m (-1.2%)</text>
<text x="46.0" y="532.0" font-family="Inter, Arial, sans-serif" font-size="13" font-weight="400" fill="#111827">fit: RMSE 3.9 m, p95 6.6 m</text>
<text x="46.0" y="556.0" font-family="Inter, Arial, sans-serif" font-size="13" font-weight="400" fill="#059669">reason: compliant</text>
<rect x="500" y="92" width="448" height="500" rx="10" fill="#ffffff" stroke="#cbd5e1"/>
<text x="520.0" y="126.0" font-family="Inter, Arial, sans-serif" font-size="17" font-weight="700" fill="#111827">Path-length outlier</text>
<text x="520.0" y="148.0" font-family="Inter, Arial, sans-serif" font-size="13" font-weight="400" fill="#475569">VER lap 2, projected with clean-lap transform</text>
<polyline points="750.7,366.4 753.7,380.3 755.9,390.6 757.2,398.2 757.4,404.4 755.4,421.2 755.8,423.2 757.1,424.5 762.1,426.7 763.1,427.4 763.6,428.9 763.4,430.4 762.7,431.8 761.3,433.0 759.6,433.6 757.4,433.6 755.0,433.1 749.1,431.4 745.1,430.1 741.3,428.0 737.7,425.6 729.3,418.4 724.3,413.8 723.4,412.3 723.1,411.1 723.2,409.9 724.1,407.2 724.4,405.6 724.2,404.2 723.6,403.1 714.0,391.5 712.3,390.0 709.1,387.7 707.2,386.1 705.1,383.3 703.9,380.3 703.1,377.3 702.8,374.8 702.8,356.6 702.8,355.1 702.2,353.9 701.0,353.0 699.0,352.5 696.2,353.2 694.6,353.3 692.7,352.8 691.1,351.8 689.9,350.6 688.8,349.2 688.2,348.0 687.3,345.4 686.5,342.3 685.7,338.4 685.5,335.2 684.4,321.2 684.5,313.7 684.7,307.6 685.2,301.0 685.9,295.7 686.7,291.6 691.6,271.7 692.4,269.9 693.6,269.2 694.8,268.9 696.6,268.8 698.0,268.3 699.4,267.5 700.8,266.0 702.0,264.2 703.0,261.8 707.8,242.0 709.8,231.2 710.4,223.7 710.7,216.0 710.6,213.4 710.3,210.8 706.8,193.2 706.6,192.1 706.8,191.2 707.6,190.3 709.2,190.0 710.2,190.3 710.9,191.1 711.1,191.8 711.5,195.7 712.1,201.7 712.3,203.7 713.1,205.9 715.7,211.2 718.0,215.8 729.5,245.7 730.9,249.6 748.0,331.5 748.7,334.9 748.5,336.0 747.7,336.9 746.4,337.4 745.5,338.3 745.2,339.3 745.2,340.6 748.3,354.7 750.7,366.4" fill="none" stroke="#94a3b8" stroke-width="3.0" stroke-linejoin="round" stroke-linecap="round" opacity="0.85"/>
<polyline points="741.2,297.8 742.6,304.6 743.2,307.4 743.6,309.1 744.6,313.6 745.5,317.7 746.4,321.7 746.9,324.3 747.4,326.6 747.9,328.8 748.2,330.2 748.4,331.4 748.7,334.1 748.5,334.6 748.3,335.2 747.7,336.6 746.9,337.8 746.2,339.3 746.0,339.8 745.8,340.9 745.7,342.1 745.7,342.8 745.8,344.1 745.9,345.3 746.5,348.9 746.8,349.8 747.1,350.9 747.5,352.4 748.1,354.7 748.8,357.5 749.2,359.0 749.7,360.9 750.1,362.7 750.5,364.3 750.9,366.1 751.3,367.6 751.7,369.5 752.3,371.9 753.0,374.9 754.1,379.4 754.3,380.2 754.9,382.6 756.1,387.9 756.7,391.2 757.0,393.1 757.3,395.7 757.4,397.5 757.4,401.3 757.3,404.0 757.1,405.5 756.9,407.8 756.7,409.5 756.4,411.6 756.2,413.0 756.0,414.7 755.7,417.5 755.7,419.5 755.7,419.9 755.9,421.5 756.5,422.9 757.3,424.1 757.9,424.8 758.7,425.5 759.8,426.3 760.1,426.4 760.7,426.8 761.6,427.3 762.2,427.7 763.0,428.6 763.1,429.0 763.0,431.2 762.7,431.8 762.2,432.5 761.7,433.1 761.2,433.4 760.5,433.7 759.6,433.9 758.2,434.0 757.1,434.0 756.2,433.9 754.7,433.8 752.4,433.3 750.9,432.8 749.1,432.2 747.5,431.6 746.4,431.2 741.5,428.7 739.0,427.0 738.0,426.2 736.6,425.1 734.9,423.8 733.6,422.8 732.5,421.8 726.7,416.8 725.8,416.0 725.3,415.4 724.1,413.8 723.8,413.1 723.4,411.0 723.7,409.1 723.8,407.9 723.8,406.6 723.7,405.8 723.5,404.6 723.1,403.4 722.2,402.0 721.5,401.0 719.0,397.8 717.6,396.0 715.8,393.9 714.5,392.5 713.0,391.2 711.5,389.9 709.9,388.6 708.9,387.8 707.6,386.6 705.8,384.5 704.5,382.0 704.0,380.8 702.9,376.9 702.7,375.3 702.6,372.1 702.6,370.5 702.7,369.1 702.9,365.8 703.1,363.3 703.2,360.9 703.2,359.6 703.1,358.5 702.7,356.8 702.2,355.6 701.8,354.8 701.1,354.1 700.7,353.8 699.5,353.3 697.4,353.1 696.7,353.2 695.6,353.2 694.2,353.2 693.5,353.1 691.6,352.3 690.4,351.3 689.0,349.7 688.2,348.4 687.3,346.5 686.9,345.2 686.5,343.4 686.1,340.9 685.9,339.5 685.7,337.2 685.4,334.7 685.3,333.6 685.2,331.7 685.0,329.0 684.8,325.8 684.6,322.2 684.5,318.9 684.5,317.3 684.5,315.7 684.5,314.0 684.5,311.2 684.7,307.4 684.8,305.1 685.0,303.0 686.9,289.8 687.7,287.0 688.2,284.8 688.7,283.1 689.1,281.6 689.8,278.7 690.3,276.5 690.7,275.0 691.0,274.1 691.5,272.5 691.9,271.5 692.3,270.8 693.8,269.4 695.0,269.0 695.9,268.9 699.3,267.4 700.0,266.7 700.8,265.8 701.5,265.0 702.0,264.1 703.2,261.5 703.5,260.6 704.0,259.3 704.7,256.7 704.8,256.3 705.2,254.7 705.8,252.5 706.1,251.3 706.9,247.7 707.4,245.2 707.9,243.0 708.3,240.4 708.8,237.6 709.3,234.3 709.5,232.8 709.8,230.4 709.9,229.3 710.1,226.6 710.2,224.4 710.3,218.0 710.3,215.8 710.3,214.3 710.1,212.1 709.6,209.0 709.3,207.3 708.9,205.8 708.6,204.5 708.1,201.8 707.8,200.7 707.6,199.5 707.3,198.1 707.1,196.8 706.9,195.9 706.7,194.8 706.6,193.7 706.6,193.3 706.7,192.9 706.8,192.2 706.9,191.7 707.2,191.2 707.4,191.0 708.1,190.6 708.5,190.5 709.0,190.4 710.5,190.9 710.8,191.2 711.0,191.6 711.3,192.1 711.7,193.1 712.0,194.1 712.3,195.5 712.5,196.7 712.6,198.2 712.7,199.2 712.7,199.6 712.8,201.6 713.2,204.0 713.7,206.0 714.5,208.3 715.7,211.2 716.8,214.2 717.6,216.1 721.1,224.5 722.1,227.1 722.8,228.8 723.4,230.2 724.7,233.4 725.4,235.2 726.3,237.4 727.1,239.7 728.1,242.4 728.8,244.5 729.2,245.7 731.1,252.1 731.7,254.4 732.4,257.3 733.0,259.7 734.1,264.6 734.5,266.7 735.1,269.1 735.4,270.6 736.2,274.6 736.9,277.7 737.6,280.7 738.2,283.9 739.3,288.8 740.1,292.4 740.2,293.1 740.8,296.0 742.2,302.5 743.0,306.2 743.6,309.0 744.5,313.3 745.0,315.6 746.0,320.0 746.5,322.2 747.3,325.9 747.5,326.9 747.7,328.1 748.2,330.5 748.4,331.7 748.5,332.4 748.7,334.4 748.2,335.6 747.6,336.8 747.2,337.4 746.5,338.7 746.1,339.4 745.7,341.6" fill="none" stroke="#dc2626" stroke-width="3.2" stroke-linejoin="round" stroke-linecap="round" opacity="0.95"/>
<circle cx="741.2" cy="297.8" r="4.5" fill="#111827"/>
<circle cx="745.7" cy="341.6" r="4.5" fill="#64748b"/>
<text x="520.0" y="484.0" font-family="Inter, Arial, sans-serif" font-size="13" font-weight="400" fill="#111827">time: 76.418s</text>
<text x="520.0" y="508.0" font-family="Inter, Arial, sans-serif" font-size="13" font-weight="400" fill="#111827">length: 5012.9 m (+14.8%)</text>
<text x="520.0" y="532.0" font-family="Inter, Arial, sans-serif" font-size="13" font-weight="400" fill="#111827">shape fit: skipped after pre-fit rejection</text>
<text x="520.0" y="556.0" font-family="Inter, Arial, sans-serif" font-size="13" font-weight="400" fill="#dc2626">reason: path_length_outlier</text>
<rect x="974" y="92" width="448" height="500" rx="10" fill="#ffffff" stroke="#cbd5e1"/>
<text x="994.0" y="126.0" font-family="Inter, Arial, sans-serif" font-size="17" font-weight="700" fill="#111827">Pit/inaccurate lap</text>
<text x="994.0" y="148.0" font-family="Inter, Arial, sans-serif" font-size="13" font-weight="400" fill="#475569">RUS lap 13, projected with clean-lap transform</text>
<polyline points="1224.7,366.4 1227.7,380.3 1230.0,390.6 1231.2,398.2 1231.4,404.4 1229.4,421.2 1229.8,423.2 1231.1,424.5 1236.1,426.7 1237.1,427.4 1237.6,428.9 1237.4,430.4 1236.7,431.8 1235.3,433.0 1233.6,433.6 1231.4,433.6 1229.0,433.1 1223.1,431.4 1219.1,430.1 1215.3,428.0 1211.7,425.6 1203.3,418.4 1198.3,413.8 1197.4,412.3 1197.1,411.1 1197.2,409.9 1198.1,407.2 1198.4,405.6 1198.2,404.3 1197.6,403.1 1188.0,391.5 1186.3,390.0 1183.1,387.7 1181.2,386.1 1179.1,383.3 1177.9,380.3 1177.1,377.3 1176.8,374.8 1176.8,356.6 1176.8,355.1 1176.2,353.9 1175.0,353.0 1173.0,352.5 1170.2,353.2 1168.6,353.4 1166.7,352.8 1165.0,351.8 1163.9,350.6 1162.8,349.2 1162.2,348.0 1161.3,345.4 1160.5,342.3 1159.7,338.4 1159.5,335.2 1158.4,321.2 1158.5,313.7 1158.7,307.6 1159.2,301.0 1159.9,295.7 1160.7,291.6 1165.6,271.7 1166.4,269.9 1167.6,269.2 1168.8,269.0 1170.6,268.8 1172.0,268.3 1173.4,267.6 1174.8,266.0 1176.0,264.2 1177.0,261.8 1181.8,242.0 1183.8,231.2 1184.4,223.7 1184.7,216.0 1184.6,213.4 1184.3,210.8 1180.8,193.2 1180.6,192.1 1180.8,191.2 1181.6,190.3 1183.2,190.0 1184.2,190.3 1184.9,191.1 1185.1,191.8 1185.5,195.7 1186.1,201.7 1186.3,203.7 1187.1,205.9 1189.7,211.2 1192.0,215.9 1203.5,245.7 1204.9,249.6 1222.0,331.5 1222.7,334.9 1222.5,336.0 1221.7,336.9 1220.4,337.4 1219.5,338.3 1219.2,339.3 1219.2,340.6 1222.3,354.8 1224.7,366.4" fill="none" stroke="#94a3b8" stroke-width="3.0" stroke-linejoin="round" stroke-linecap="round" opacity="0.85"/>
<polyline points="1231.2,394.3 1231.4,397.5 1231.4,401.5 1231.2,405.0 1231.0,406.5 1230.8,408.7 1230.3,412.0 1230.0,414.0 1229.8,416.1 1229.7,417.7 1229.7,420.3 1229.8,421.0 1230.1,422.0 1230.6,423.2 1231.8,424.7 1232.7,425.5 1233.7,426.2 1234.8,426.8 1235.0,426.9 1236.0,427.5 1236.5,428.0 1236.9,428.5 1237.0,428.7 1237.2,430.0 1237.1,430.6 1236.9,431.0 1236.6,431.8 1236.3,432.3 1235.9,432.8 1235.5,433.2 1235.1,433.5 1233.8,433.9 1233.1,434.0 1232.4,434.0 1231.5,434.0 1229.8,433.9 1228.7,433.8 1227.5,433.5 1226.5,433.3 1225.1,432.9 1223.9,432.5 1222.3,431.9 1220.7,431.3 1219.5,430.8 1218.4,430.3 1217.5,429.8 1215.4,428.6 1213.4,427.2 1212.5,426.6 1210.8,425.3 1209.3,424.2 1208.3,423.3 1206.6,421.9 1204.1,419.8 1202.8,418.7 1200.7,416.8 1199.6,415.7 1198.1,413.8 1197.6,412.5 1197.5,412.2 1197.4,411.3 1197.6,409.8 1197.8,408.3 1197.8,407.4 1196.4,402.3 1196.0,401.7 1194.7,400.0 1193.2,398.1 1192.0,396.5 1191.2,395.5 1190.4,394.5 1188.2,392.3 1187.2,391.3 1185.3,389.7 1183.2,388.0 1181.5,386.5 1179.4,383.8 1178.7,382.4 1177.6,379.3 1177.0,377.5 1176.7,374.8 1176.6,371.0 1176.7,369.0 1176.8,366.7 1177.0,364.2 1177.1,362.6 1177.2,360.8 1177.1,358.7 1176.9,357.6 1176.5,356.1 1176.0,355.2 1175.6,354.6 1175.0,354.0 1173.8,353.3 1172.5,353.1 1171.9,353.1 1170.7,353.2 1170.0,353.2 1168.6,353.2 1166.8,352.9 1165.3,352.0 1165.1,351.9 1164.1,351.0 1162.7,349.2 1162.4,348.7 1161.6,347.3 1160.8,344.8 1160.5,343.5 1160.3,342.2 1160.0,340.1 1159.8,338.6 1159.6,336.8 1159.4,334.5 1159.4,333.8 1159.2,332.6 1159.1,330.7 1158.9,328.2 1158.8,326.1 1158.7,323.8 1158.6,321.5 1158.5,319.8 1158.5,316.7 1158.5,313.7 1158.5,311.2 1158.6,309.1 1158.8,306.2 1159.0,303.8 1159.2,301.7 1159.5,298.7 1159.8,297.1 1160.0,295.3 1160.8,291.1 1161.3,288.8 1161.6,287.6 1162.4,284.0 1163.0,281.9 1163.5,280.0 1163.9,278.4 1164.4,276.4 1164.9,274.5 1165.4,272.6 1165.7,271.8 1166.1,271.0 1166.7,270.2 1167.3,269.7 1168.3,269.2 1169.0,269.1 1169.9,268.9 1170.9,268.6 1171.6,268.3 1172.6,267.7 1173.2,267.3 1174.7,266.0 1175.3,265.2 1176.2,263.8 1176.4,263.3 1177.1,261.9 1177.9,259.6 1178.4,257.8 1178.8,256.1 1179.2,254.6 1179.6,253.3 1179.9,252.1 1180.4,250.2 1181.2,246.6 1181.6,244.6 1182.1,241.6 1182.4,239.9 1183.6,232.6 1183.8,230.7 1184.0,227.5 1184.1,225.6 1184.3,222.3 1184.3,221.1 1184.4,217.7 1184.3,214.9 1184.2,213.1 1183.9,210.7 1183.0,206.2 1182.7,204.7 1182.2,202.6 1181.8,200.7 1181.5,199.2 1181.3,197.8 1181.0,196.3 1180.8,195.0 1180.7,194.1 1180.6,193.3 1180.7,192.4 1180.9,191.7 1181.7,190.8 1182.1,190.6 1182.4,190.5 1183.1,190.4 1183.3,190.4 1183.7,190.5 1184.2,190.8 1184.6,191.1 1184.8,191.3 1185.1,191.8 1185.3,192.1 1185.5,192.6 1185.8,193.3 1185.8,193.5 1186.1,194.4 1186.3,195.6 1186.5,196.5 1186.6,197.8 1186.7,199.2 1186.8,200.8 1186.9,201.9 1187.0,203.1 1187.3,204.5 1187.6,205.6 1188.2,207.4 1188.6,208.5 1188.9,209.2 1189.5,210.8 1190.0,212.0 1191.1,214.9 1191.8,216.7 1192.7,218.8 1194.7,223.7 1195.3,225.0 1195.8,226.2 1197.3,229.9 1198.6,233.1 1199.1,234.5 1199.6,235.7 1200.4,237.7 1201.5,240.6 1202.0,242.1 1202.5,243.4 1203.6,246.9 1204.2,248.8 1205.2,252.5 1205.6,254.1 1206.0,255.5 1208.7,267.2 1209.7,271.9 1210.4,275.4 1210.9,277.5 1211.4,279.8 1212.1,283.1 1212.4,284.8 1213.0,287.5 1213.4,289.4 1214.2,293.2 1214.5,294.7 1215.1,297.4 1215.8,301.0 1216.4,303.5 1217.3,307.8 1217.8,309.9 1218.6,313.5 1219.2,316.2 1219.6,318.1 1220.1,320.4 1220.7,323.3 1221.3,326.0 1221.8,328.3 1222.3,331.0 1222.5,334.5 1222.0,336.2 1221.3,337.4 1220.4,338.8 1222.4,334.4 1222.8,336.1 1222.8,336.3 1223.0,337.2 1223.2,338.3 1223.4,338.9 1223.5,339.5 1224.5,343.8 1224.7,344.8 1224.9,346.5 1225.0,347.1 1225.0,347.8 1224.9,348.9 1224.8,349.5 1224.4,350.7 1224.2,351.2 1224.0,351.7 1223.8,352.4 1223.7,353.2 1223.8,353.9 1223.9,354.6 1224.0,355.3 1224.2,356.2 1224.3,356.7 1224.4,357.2 1224.6,357.9 1224.8,359.0 1224.9,359.5 1225.0,360.0 1225.1,360.5 1225.1,360.7 1225.2,361.1 1225.4,361.6 1225.5,362.2 1225.7,363.3 1225.8,363.8 1226.0,364.7 1226.1,365.1 1226.4,366.6 1226.5,367.2 1226.7,368.1 1226.8,368.7 1227.0,369.4 1227.2,370.1 1227.3,370.9 1227.5,371.8 1227.8,373.0 1227.9,373.6 1228.2,374.8 1228.3,375.3 1228.4,375.8 1228.5,376.5 1228.6,376.7 1228.6,377.0 1228.7,377.3 1228.8,377.5 1228.8,377.9 1228.8,377.9 1228.9,378.0 1228.9,378.1 1228.9,378.2 1228.9,378.4 1229.0,378.6 1229.0,378.8 1229.1,379.1 1229.1,379.3 1229.3,380.1 1229.3,380.2 1229.4,380.8 1229.6,381.5 1229.7,381.9 1229.8,382.6 1229.9,383.0 1230.0,383.5 1230.1,384.0 1230.3,384.8 1230.4,385.4 1230.5,385.8 1230.6,386.2 1230.8,387.0 1230.9,387.9 1231.2,388.9 1231.3,389.5 1231.5,390.4 1231.6,390.8 1231.6,391.2" fill="none" stroke="#f97316" stroke-width="3.2" stroke-linejoin="round" stroke-linecap="round" opacity="0.95"/>
<circle cx="1231.2" cy="394.3" r="4.5" fill="#111827"/>
<circle cx="1231.6" cy="391.2" r="4.5" fill="#64748b"/>
<text x="994.0" y="484.0" font-family="Inter, Arial, sans-serif" font-size="13" font-weight="400" fill="#111827">time: 92.351s</text>
<text x="994.0" y="508.0" font-family="Inter, Arial, sans-serif" font-size="13" font-weight="400" fill="#111827">length: 4384.5 m (+0.4%)</text>
<text x="994.0" y="532.0" font-family="Inter, Arial, sans-serif" font-size="13" font-weight="400" fill="#111827">shape fit: skipped after pre-fit rejection</text>
<text x="994.0" y="556.0" font-family="Inter, Arial, sans-serif" font-size="13" font-weight="400" fill="#f97316">reason: pit_lap + fastf1_inaccurate</text>
<line x1="586" y1="622" x2="636" y2="622" stroke="#94a3b8" stroke-width="4" stroke-linecap="round"/>
<text x="646.0" y="627.0" font-family="Inter, Arial, sans-serif" font-size="13" font-weight="400" fill="#475569">repo GPS</text>
<line x1="742" y1="622" x2="792" y2="622" stroke="#059669" stroke-width="4" stroke-linecap="round"/>
<text x="802.0" y="627.0" font-family="Inter, Arial, sans-serif" font-size="13" font-weight="400" fill="#475569">FastF1 trace, anchor-projected</text>
</svg>