<svg xmlns="http://www.w3.org/2000/svg" width="1300" height="876" viewBox="0 0 1300 876">
<rect width="100%" height="100%" fill="#f8fafc"/>
<text x="34.0" y="42.0" font-family="Inter, Arial, sans-serif" font-size="24" font-weight="700" fill="#111827">2025 FastF1 lap compliance by circuit</text>
<text x="34.0" y="68.0" font-family="Inter, Arial, sans-serif" font-size="14" font-weight="400" fill="#475569">25,019 good laps (93.7%) vs 1,670 bad laps (6.3%) across 26,689 inspected laps.</text>
<line x1="34" y1="92" x2="1264" y2="92" stroke="#cbd5e1"/>
<rect x="365" y="80" width="18" height="8" fill="#059669"/>
<text x="390.0" y="88.0" font-family="Inter, Arial, sans-serif" font-size="12" font-weight="400" fill="#475569">good</text>
<rect x="452" y="80" width="18" height="8" fill="#dc2626"/>
<text x="477.0" y="88.0" font-family="Inter, Arial, sans-serif" font-size="12" font-weight="400" fill="#475569">bad</text>
<rect x="530" y="80" width="18" height="8" fill="#2563eb"/>
<text x="555.0" y="88.0" font-family="Inter, Arial, sans-serif" font-size="12" font-weight="400" fill="#475569">warning (non-blocking): 3,646</text>
<text x="34.0" y="130.0" font-family="Inter, Arial, sans-serif" font-size="12" font-weight="400" fill="#334155">01 Australian Grand Prix</text>
<rect x="365" y="118" width="720" height="16" rx="3" fill="#e2e8f0"/>
<rect x="365" y="118" width="612.8" height="16" rx="3" fill="#059669"/>
<rect x="977.8" y="118" width="107.2" height="16" rx="3" fill="#dc2626"/>
<text x="1085.0" y="130.0" font-family="Inter, Arial, sans-serif" font-size="12" font-weight="400" fill="#334155">85.1% good</text>
<text x="1167.0" y="130.0" font-family="Inter, Arial, sans-serif" font-size="11" font-weight="400" fill="#64748b">138 bad / 359 warn</text>
<text x="34.0" y="160.0" font-family="Inter, Arial, sans-serif" font-size="12" font-weight="400" fill="#334155">02 Chinese Grand Prix</text>
<rect x="365" y="148" width="720" height="16" rx="3" fill="#e2e8f0"/>
<rect x="365" y="148" width="684.8" height="16" rx="3" fill="#059669"/>
<rect x="1049.8" y="148" width="35.2" height="16" rx="3" fill="#dc2626"/>
<text x="1085.0" y="160.0" font-family="Inter, Arial, sans-serif" font-size="12" font-weight="400" fill="#334155">95.1% good</text>
<text x="1167.0" y="160.0" font-family="Inter, Arial, sans-serif" font-size="11" font-weight="400" fill="#64748b">52 bad / 70 warn</text>
<text x="34.0" y="190.0" font-family="Inter, Arial, sans-serif" font-size="12" font-weight="400" fill="#334155">03 Japanese Grand Prix</text>
<rect x="365" y="178" width="720" height="16" rx="3" fill="#e2e8f0"/>
<rect x="365" y="178" width="691.4" height="16" rx="3" fill="#059669"/>
<rect x="1056.4" y="178" width="28.6" height="16" rx="3" fill="#dc2626"/>
<text x="1085.0" y="190.0" font-family="Inter, Arial, sans-serif" font-size="12" font-weight="400" fill="#334155">96.0% good</text>
<text x="1167.0" y="190.0" font-family="Inter, Arial, sans-serif" font-size="11" font-weight="400" fill="#64748b">42 bad / 62 warn</text>
<text x="34.0" y="220.0" font-family="Inter, Arial, sans-serif" font-size="12" font-weight="400" fill="#334155">04 Bahrain Grand Prix</text>
<rect x="365" y="208" width="720" height="16" rx="3" fill="#e2e8f0"/>
<rect x="365" y="208" width="658.1" height="16" rx="3" fill="#059669"/>
<rect x="1023.1" y="208" width="61.9" height="16" rx="3" fill="#dc2626"/>
<text x="1085.0" y="220.0" font-family="Inter, Arial, sans-serif" font-size="12" font-weight="400" fill="#334155">91.4% good</text>
<text x="1167.0" y="220.0" font-family="Inter, Arial, sans-serif" font-size="11" font-weight="400" fill="#64748b">97 bad / 176 warn</text>
<text x="34.0" y="250.0" font-family="Inter, Arial, sans-serif" font-size="12" font-weight="400" fill="#334155">05 Saudi Arabian Grand Prix</text>
<rect x="365" y="238" width="720" height="16" rx="3" fill="#e2e8f0"/>
<rect x="365" y="238" width="687.9" height="16" rx="3" fill="#059669"/>
<rect x="1052.9" y="238" width="32.1" height="16" rx="3" fill="#dc2626"/>
<text x="1085.0" y="250.0" font-family="Inter, Arial, sans-serif" font-size="12" font-weight="400" fill="#334155">95.5% good</text>
<text x="1167.0" y="250.0" font-family="Inter, Arial, sans-serif" font-size="11" font-weight="400" fill="#64748b">40 bad / 88 warn</text>
<text x="34.0" y="280.0" font-family="Inter, Arial, sans-serif" font-size="12" font-weight="400" fill="#334155">06 Miami Grand Prix</text>
<rect x="365" y="268" width="720" height="16" rx="3" fill="#e2e8f0"/>
<rect x="365" y="268" width="689.9" height="16" rx="3" fill="#059669"/>
<rect x="1054.9" y="268" width="30.1" height="16" rx="3" fill="#dc2626"/>
<text x="1085.0" y="280.0" font-family="Inter, Arial, sans-serif" font-size="12" font-weight="400" fill="#334155">95.8% good</text>
<text x="1167.0" y="280.0" font-family="Inter, Arial, sans-serif" font-size="11" font-weight="400" fill="#64748b">42 bad / 144 warn</text>
<text x="34.0" y="310.0" font-family="Inter, Arial, sans-serif" font-size="12" font-weight="400" fill="#334155">07 Emilia Romagna Grand Prix</text>
<rect x="365" y="298" width="720" height="16" rx="3" fill="#e2e8f0"/>
<rect x="365" y="298" width="674.1" height="16" rx="3" fill="#059669"/>
<rect x="1039.1" y="298" width="45.9" height="16" rx="3" fill="#dc2626"/>
<text x="1085.0" y="310.0" font-family="Inter, Arial, sans-serif" font-size="12" font-weight="400" fill="#334155">93.6% good</text>
<text x="1167.0" y="310.0" font-family="Inter, Arial, sans-serif" font-size="11" font-weight="400" fill="#64748b">77 bad / 251 warn</text>
<text x="34.0" y="340.0" font-family="Inter, Arial, sans-serif" font-size="12" font-weight="400" fill="#334155">08 Monaco Grand Prix</text>
<rect x="365" y="328" width="720" height="16" rx="3" fill="#e2e8f0"/>
<rect x="365" y="328" width="677.1" height="16" rx="3" fill="#059669"/>
<rect x="1042.1" y="328" width="42.9" height="16" rx="3" fill="#dc2626"/>
<text x="1085.0" y="340.0" font-family="Inter, Arial, sans-serif" font-size="12" font-weight="400" fill="#334155">94.0% good</text>
<text x="1167.0" y="340.0" font-family="Inter, Arial, sans-serif" font-size="11" font-weight="400" fill="#64748b">85 bad / 154 warn</text>
<text x="34.0" y="370.0" font-family="Inter, Arial, sans-serif" font-size="12" font-weight="400" fill="#334155">09 Spanish Grand Prix</text>
<rect x="365" y="358" width="720" height="16" rx="3" fill="#e2e8f0"/>
<rect x="365" y="358" width="654.2" height="16" rx="3" fill="#059669"/>
<rect x="1019.2" y="358" width="65.8" height="16" rx="3" fill="#dc2626"/>
<text x="1085.0" y="370.0" font-family="Inter, Arial, sans-serif" font-size="12" font-weight="400" fill="#334155">90.9% good</text>
<text x="1167.0" y="370.0" font-family="Inter, Arial, sans-serif" font-size="11" font-weight="400" fill="#64748b">110 bad / 213 warn</text>
<text x="34.0" y="400.0" font-family="Inter, Arial, sans-serif" font-size="12" font-weight="400" fill="#334155">10 Canadian Grand Prix</text>
<rect x="365" y="388" width="720" height="16" rx="3" fill="#e2e8f0"/>
<rect x="365" y="388" width="649.5" height="16" rx="3" fill="#059669"/>
<rect x="1014.5" y="388" width="70.5" height="16" rx="3" fill="#dc2626"/>
<text x="1085.0" y="400.0" font-family="Inter, Arial, sans-serif" font-size="12" font-weight="400" fill="#334155">90.2% good</text>
<text x="1167.0" y="400.0" font-family="Inter, Arial, sans-serif" font-size="11" font-weight="400" fill="#64748b">132 bad / 152 warn</text>
<text x="34.0" y="430.0" font-family="Inter, Arial, sans-serif" font-size="12" font-weight="400" fill="#334155">11 Austrian Grand Prix</text>
<rect x="365" y="418" width="720" height="16" rx="3" fill="#e2e8f0"/>
<rect x="365" y="418" width="677.2" height="16" rx="3" fill="#059669"/>
<rect x="1042.2" y="418" width="42.8" height="16" rx="3" fill="#dc2626"/>
<text x="1085.0" y="430.0" font-family="Inter, Arial, sans-serif" font-size="12" font-weight="400" fill="#334155">94.0% good</text>
<text x="1167.0" y="430.0" font-family="Inter, Arial, sans-serif" font-size="11" font-weight="400" fill="#64748b">67 bad / 116 warn</text>
<text x="34.0" y="460.0" font-family="Inter, Arial, sans-serif" font-size="12" font-weight="400" fill="#334155">12 British Grand Prix</text>
<rect x="365" y="448" width="720" height="16" rx="3" fill="#e2e8f0"/>
<rect x="365" y="448" width="651.1" height="16" rx="3" fill="#059669"/>
<rect x="1016.1" y="448" width="68.9" height="16" rx="3" fill="#dc2626"/>
<text x="1085.0" y="460.0" font-family="Inter, Arial, sans-serif" font-size="12" font-weight="400" fill="#334155">90.4% good</text>
<text x="1167.0" y="460.0" font-family="Inter, Arial, sans-serif" font-size="11" font-weight="400" fill="#64748b">79 bad / 329 warn</text>
<text x="34.0" y="490.0" font-family="Inter, Arial, sans-serif" font-size="12" font-weight="400" fill="#334155">13 Belgian Grand Prix</text>
<rect x="365" y="478" width="720" height="16" rx="3" fill="#e2e8f0"/>
<rect x="365" y="478" width="661.0" height="16" rx="3" fill="#059669"/>
<rect x="1026.0" y="478" width="59.0" height="16" rx="3" fill="#dc2626"/>
<text x="1085.0" y="490.0" font-family="Inter, Arial, sans-serif" font-size="12" font-weight="400" fill="#334155">91.8% good</text>
<text x="1167.0" y="490.0" font-family="Inter, Arial, sans-serif" font-size="11" font-weight="400" fill="#64748b">72 bad / 132 warn</text>
<text x="34.0" y="520.0" font-family="Inter, Arial, sans-serif" font-size="12" font-weight="400" fill="#334155">14 Hungarian Grand Prix</text>
<rect x="365" y="508" width="720" height="16" rx="3" fill="#e2e8f0"/>
<rect x="365" y="508" width="687.9" height="16" rx="3" fill="#059669"/>
<rect x="1052.9" y="508" width="32.1" height="16" rx="3" fill="#dc2626"/>
<text x="1085.0" y="520.0" font-family="Inter, Arial, sans-serif" font-size="12" font-weight="400" fill="#334155">95.5% good</text>
<text x="1167.0" y="520.0" font-family="Inter, Arial, sans-serif" font-size="11" font-weight="400" fill="#64748b">61 bad / 79 warn</text>
<text x="34.0" y="550.0" font-family="Inter, Arial, sans-serif" font-size="12" font-weight="400" fill="#334155">15 Dutch Grand Prix</text>
<rect x="365" y="538" width="720" height="16" rx="3" fill="#e2e8f0"/>
<rect x="365" y="538" width="676.7" height="16" rx="3" fill="#059669"/>
<rect x="1041.7" y="538" width="43.3" height="16" rx="3" fill="#dc2626"/>
<text x="1085.0" y="550.0" font-family="Inter, Arial, sans-serif" font-size="12" font-weight="400" fill="#334155">94.0% good</text>
<text x="1167.0" y="550.0" font-family="Inter, Arial, sans-serif" font-size="11" font-weight="400" fill="#64748b">82 bad / 323 warn</text>
<text x="34.0" y="580.0" font-family="Inter, Arial, sans-serif" font-size="12" font-weight="400" fill="#334155">16 Italian Grand Prix</text>
<rect x="365" y="568" width="720" height="16" rx="3" fill="#e2e8f0"/>
<rect x="365" y="568" width="689.7" height="16" rx="3" fill="#059669"/>
<rect x="1054.7" y="568" width="30.3" height="16" rx="3" fill="#dc2626"/>
<text x="1085.0" y="580.0" font-family="Inter, Arial, sans-serif" font-size="12" font-weight="400" fill="#334155">95.8% good</text>
<text x="1167.0" y="580.0" font-family="Inter, Arial, sans-serif" font-size="11" font-weight="400" fill="#64748b">41 bad / 58 warn</text>
<text x="34.0" y="610.0" font-family="Inter, Arial, sans-serif" font-size="12" font-weight="400" fill="#334155">17 Azerbaijan Grand Prix</text>
<rect x="365" y="598" width="720" height="16" rx="3" fill="#e2e8f0"/>
<rect x="365" y="598" width="688.8" height="16" rx="3" fill="#059669"/>
<rect x="1053.8" y="598" width="31.2" height="16" rx="3" fill="#dc2626"/>
<text x="1085.0" y="610.0" font-family="Inter, Arial, sans-serif" font-size="12" font-weight="400" fill="#334155">95.7% good</text>
<text x="1167.0" y="610.0" font-family="Inter, Arial, sans-serif" font-size="11" font-weight="400" fill="#64748b">42 bad / 113 warn</text>
<text x="34.0" y="640.0" font-family="Inter, Arial, sans-serif" font-size="12" font-weight="400" fill="#334155">18 Singapore Grand Prix</text>
<rect x="365" y="628" width="720" height="16" rx="3" fill="#e2e8f0"/>
<rect x="365" y="628" width="691.9" height="16" rx="3" fill="#059669"/>
<rect x="1056.9" y="628" width="28.1" height="16" rx="3" fill="#dc2626"/>
<text x="1085.0" y="640.0" font-family="Inter, Arial, sans-serif" font-size="12" font-weight="400" fill="#334155">96.1% good</text>
<text x="1167.0" y="640.0" font-family="Inter, Arial, sans-serif" font-size="11" font-weight="400" fill="#64748b">48 bad / 66 warn</text>
<text x="34.0" y="670.0" font-family="Inter, Arial, sans-serif" font-size="12" font-weight="400" fill="#334155">19 United States Grand Prix</text>
<rect x="365" y="658" width="720" height="16" rx="3" fill="#e2e8f0"/>
<rect x="365" y="658" width="691.7" height="16" rx="3" fill="#059669"/>
<rect x="1056.7" y="658" width="28.3" height="16" rx="3" fill="#dc2626"/>
<text x="1085.0" y="670.0" font-family="Inter, Arial, sans-serif" font-size="12" font-weight="400" fill="#334155">96.1% good</text>
<text x="1167.0" y="670.0" font-family="Inter, Arial, sans-serif" font-size="11" font-weight="400" fill="#64748b">42 bad / 104 warn</text>
<text x="34.0" y="700.0" font-family="Inter, Arial, sans-serif" font-size="12" font-weight="400" fill="#334155">20 Mexico City Grand Prix</text>
<rect x="365" y="688" width="720" height="16" rx="3" fill="#e2e8f0"/>
<rect x="365" y="688" width="687.5" height="16" rx="3" fill="#059669"/>
<rect x="1052.5" y="688" width="32.5" height="16" rx="3" fill="#dc2626"/>
<text x="1085.0" y="700.0" font-family="Inter, Arial, sans-serif" font-size="12" font-weight="400" fill="#334155">95.5% good</text>
<text x="1167.0" y="700.0" font-family="Inter, Arial, sans-serif" font-size="11" font-weight="400" fill="#64748b">57 bad / 110 warn</text>
<text x="34.0" y="730.0" font-family="Inter, Arial, sans-serif" font-size="12" font-weight="400" fill="#334155">21 São Paulo Grand Prix</text>
<rect x="365" y="718" width="720" height="16" rx="3" fill="#e2e8f0"/>
<rect x="365" y="718" width="674.5" height="16" rx="3" fill="#059669"/>
<rect x="1039.5" y="718" width="45.5" height="16" rx="3" fill="#dc2626"/>
<text x="1085.0" y="730.0" font-family="Inter, Arial, sans-serif" font-size="12" font-weight="400" fill="#334155">93.7% good</text>
<text x="1167.0" y="730.0" font-family="Inter, Arial, sans-serif" font-size="11" font-weight="400" fill="#64748b">79 bad / 202 warn</text>
<text x="34.0" y="760.0" font-family="Inter, Arial, sans-serif" font-size="12" font-weight="400" fill="#334155">22 Las Vegas Grand Prix</text>
<rect x="365" y="748" width="720" height="16" rx="3" fill="#e2e8f0"/>
<rect x="365" y="748" width="682.6" height="16" rx="3" fill="#059669"/>
<rect x="1047.6" y="748" width="37.4" height="16" rx="3" fill="#dc2626"/>
<text x="1085.0" y="760.0" font-family="Inter, Arial, sans-serif" font-size="12" font-weight="400" fill="#334155">94.8% good</text>
<text x="1167.0" y="760.0" font-family="Inter, Arial, sans-serif" font-size="11" font-weight="400" fill="#64748b">46 bad / 126 warn</text>
<text x="34.0" y="790.0" font-family="Inter, Arial, sans-serif" font-size="12" font-weight="400" fill="#334155">23 Qatar Grand Prix</text>
<rect x="365" y="778" width="720" height="16" rx="3" fill="#e2e8f0"/>
<rect x="365" y="778" width="662.6" height="16" rx="3" fill="#059669"/>
<rect x="1027.6" y="778" width="57.4" height="16" rx="3" fill="#dc2626"/>
<text x="1085.0" y="790.0" font-family="Inter, Arial, sans-serif" font-size="12" font-weight="400" fill="#334155">92.0% good</text>
<text x="1167.0" y="790.0" font-family="Inter, Arial, sans-serif" font-size="11" font-weight="400" fill="#64748b">85 bad / 145 warn</text>
<text x="34.0" y="820.0" font-family="Inter, Arial, sans-serif" font-size="12" font-weight="400" fill="#334155">24 Abu Dhabi Grand Prix</text>
<rect x="365" y="808" width="720" height="16" rx="3" fill="#e2e8f0"/>
<rect x="365" y="808" width="686.4" height="16" rx="3" fill="#059669"/>
<rect x="1051.4" y="808" width="33.6" height="16" rx="3" fill="#dc2626"/>
<text x="1085.0" y="820.0" font-family="Inter, Arial, sans-serif" font-size="12" font-weight="400" fill="#334155">95.3% good</text>
<text x="1167.0" y="820.0" font-family="Inter, Arial, sans-serif" font-size="11" font-weight="400" fill="#64748b">54 bad / 74 warn</text>
</svg>