<svg xmlns="http://www.w3.org/2000/svg" width="1200" height="620" viewBox="0 0 1200 620">
  <rect width="100%" height="100%" fill="#f8fafc"/>
  <text x="46" y="48" font-family="Inter, Arial, sans-serif" font-size="26" font-weight="700" fill="#111827">Canada 2025: shrinking the validated GPS line</text>
  <text x="46" y="78" font-family="Inter, Arial, sans-serif" font-size="14" fill="#475569">Full GPS points -&gt; under-1 m simplification -&gt; one compact string for maps and APIs.</text>

  <defs>
    <marker id="arrow" markerWidth="12" markerHeight="12" refX="9" refY="3" orient="auto" markerUnits="strokeWidth">
      <path d="M0,0 L0,6 L9,3 z" fill="#475569"/>
    </marker>
  </defs>

  <rect x="46" y="128" width="318" height="310" rx="8" fill="#ffffff" stroke="#cbd5e1"/>
  <text x="72" y="166" font-family="Inter, Arial, sans-serif" font-size="18" font-weight="700" fill="#111827">1. Source GPS line</text>
  <text x="72" y="192" font-family="Inter, Arial, sans-serif" font-size="13" fill="#475569">All points from the f1-circuits LineString.</text>
  <polyline points="228.3,322.3 230.3,331.6 231.7,338.4 232.6,343.4 232.7,347.6 231.4,358.8 231.6,360.1 232.5,360.9 235.8,362.4 236.5,362.9 236.8,363.9 236.7,364.8 236.2,365.8 235.3,366.6 234.2,367.0 232.7,367.0 231.1,366.6 227.2,365.5 224.5,364.7 222.0,363.3 219.6,361.7 214.0,356.9 210.7,353.8 210.1,352.8 209.9,352.0 210.0,351.2 210.5,349.5 210.7,348.4 210.6,347.5 210.2,346.7 203.9,339.0 202.7,338.0 200.6,336.5 199.3,335.4 197.9,333.6 197.1,331.6 196.6,329.5 196.4,327.9 196.4,315.8 196.4,314.8 196.0,314.0 195.2,313.4 193.9,313.0 192.0,313.5 191.0,313.6 189.7,313.3 188.6,312.6 187.8,311.8 187.1,310.9 186.7,310.0 186.1,308.3 185.6,306.3 185.0,303.7 184.9,301.5 184.2,292.3 184.3,287.3 184.4,283.2 184.7,278.8 185.2,275.3 185.7,272.6 188.9,259.4 189.5,258.2 190.3,257.7 191.1,257.5 192.3,257.4 193.2,257.1 194.1,256.6 195.1,255.5 195.8,254.3 196.5,252.7 199.7,239.6 201.0,232.4 201.5,227.4 201.7,222.3 201.6,220.6 201.4,218.8 199.0,207.1 199.0,206.4 199.0,205.8 199.6,205.2 200.6,205.0 201.3,205.2 201.8,205.8 201.9,206.2 202.2,208.8 202.6,212.8 202.7,214.1 203.3,215.6 205.0,219.1 206.5,222.2 214.2,242.0 215.1,244.6 226.4,299.1 226.9,301.3 226.8,302.1 226.3,302.7 225.4,303.0 224.8,303.6 224.6,304.3 224.6,305.1 226.7,314.6 228.3,322.3" fill="none" stroke="#94a3b8" stroke-width="5" stroke-linejoin="round" stroke-linecap="round"/>
  <g fill="#2563eb">
    <circle cx="228.3" cy="322.3" r="3"/><circle cx="231.6" cy="360.1" r="3"/><circle cx="236.2" cy="365.8" r="3"/><circle cx="224.5" cy="364.7" r="3"/><circle cx="209.9" cy="352.0" r="3"/><circle cx="203.9" cy="339.0" r="3"/><circle cx="196.6" cy="329.5" r="3"/><circle cx="193.9" cy="313.0" r="3"/><circle cx="187.1" cy="310.9" r="3"/><circle cx="184.2" cy="292.3" r="3"/><circle cx="188.9" cy="259.4" r="3"/><circle cx="194.1" cy="256.6" r="3"/><circle cx="201.5" cy="227.4" r="3"/><circle cx="199.0" cy="205.8" r="3"/><circle cx="202.2" cy="208.8" r="3"/><circle cx="214.2" cy="242.0" r="3"/><circle cx="225.4" cy="303.0" r="3"/>
  </g>
  <text x="72" y="408" font-family="Inter, Arial, sans-serif" font-size="26" font-weight="700" fill="#111827">102 points</text>

  <line x1="382" y1="284" x2="448" y2="284" stroke="#475569" stroke-width="3" marker-end="url(#arrow)"/>
  <text x="386" y="257" font-family="Inter, Arial, sans-serif" font-size="12" fill="#475569">RDP, 1.0 m</text>

  <rect x="466" y="128" width="318" height="310" rx="8" fill="#ffffff" stroke="#cbd5e1"/>
  <text x="492" y="166" font-family="Inter, Arial, sans-serif" font-size="18" font-weight="700" fill="#111827">2. Simplified line</text>
  <text x="492" y="192" font-family="Inter, Arial, sans-serif" font-size="13" fill="#475569">Only drop points that move the shape by less than 1 m.</text>
  <polyline points="648.2,322.3 651.7,338.4 652.6,343.4 652.7,347.6 651.4,358.7 651.6,360.0 652.5,360.9 655.8,362.4 656.5,362.9 656.8,363.8 656.7,364.8 656.2,365.8 655.4,366.5 654.2,367.0 652.7,367.0 647.2,365.5 644.6,364.7 642.0,363.2 639.6,361.6 634.0,356.9 630.7,353.8 630.1,352.8 629.9,352.1 629.9,351.2 630.5,349.4 630.7,348.4 630.6,347.5 630.2,346.7 623.9,339.0 619.3,335.4 617.9,333.5 617.1,331.6 616.6,329.5 616.4,327.9 616.4,314.8 616.0,314.0 615.3,313.3 613.9,313.1 611.0,313.6 609.7,313.3 608.6,312.6 607.8,311.8 607.1,310.9 606.7,310.1 606.1,308.4 605.0,303.7 604.2,292.3 604.3,287.3 604.4,283.3 604.7,278.9 605.6,272.6 608.9,259.4 609.5,258.2 610.2,257.7 612.3,257.4 613.2,257.1 614.1,256.6 615.1,255.6 615.8,254.3 616.5,252.7 619.7,239.6 621.0,232.4 621.4,227.5 621.6,220.6 621.4,218.8 619.0,207.2 619.0,205.8 619.6,205.2 620.7,205.0 621.3,205.3 621.8,205.8 621.9,206.2 622.8,214.1 623.3,215.6 626.5,222.2 635.1,244.7 646.9,301.3 646.8,302.1 646.3,302.7 645.4,303.0 644.8,303.7 644.6,304.2 644.6,305.2 648.2,322.3" fill="none" stroke="#059669" stroke-width="5" stroke-linejoin="round" stroke-linecap="round"/>
  <g fill="#059669">
    <circle cx="648.2" cy="322.3" r="4"/><circle cx="655.8" cy="362.4" r="4"/><circle cx="652.7" cy="367.0" r="4"/><circle cx="630.1" cy="352.8" r="4"/><circle cx="623.9" cy="339.0" r="4"/><circle cx="616.0" cy="314.0" r="4"/><circle cx="607.1" cy="310.9" r="4"/><circle cx="604.7" cy="278.9" r="4"/><circle cx="614.1" cy="256.6" r="4"/><circle cx="621.6" cy="220.6" r="4"/><circle cx="621.8" cy="205.8" r="4"/><circle cx="646.8" cy="302.1" r="4"/>
  </g>
  <text x="492" y="408" font-family="Inter, Arial, sans-serif" font-size="26" font-weight="700" fill="#111827">84 points</text>
  <text x="620" y="408" font-family="Inter, Arial, sans-serif" font-size="15" fill="#475569">18 fewer points</text>

  <line x1="802" y1="284" x2="868" y2="284" stroke="#475569" stroke-width="3" marker-end="url(#arrow)"/>
  <text x="806" y="257" font-family="Inter, Arial, sans-serif" font-size="12" fill="#475569">encode</text>

  <rect x="886" y="128" width="268" height="310" rx="8" fill="#ffffff" stroke="#cbd5e1"/>
  <text x="912" y="166" font-family="Inter, Arial, sans-serif" font-size="18" font-weight="700" fill="#111827">3. Encoded polyline</text>
  <text x="912" y="192" font-family="Inter, Arial, sans-serif" font-size="13" fill="#475569">Compact string for maps and APIs.</text>
  <rect x="912" y="226" width="216" height="98" rx="6" fill="#111827"/>
  <text x="932" y="260" font-family="JetBrains Mono, monospace" font-size="13" fill="#d1fae5">kavtGh_w_MvIiBhBYxAAjFd@ZEP...</text>
  <text x="932" y="288" font-family="JetBrains Mono, monospace" font-size="13" fill="#d1fae5">...encoded lat/lon deltas...</text>
  <text x="912" y="408" font-family="Inter, Arial, sans-serif" font-size="26" font-weight="700" fill="#111827">242 chars</text>

  <rect x="46" y="486" width="1108" height="86" rx="8" fill="#ecfeff" stroke="#67e8f9"/>
  <text x="72" y="520" font-family="Inter, Arial, sans-serif" font-size="17" font-weight="700" fill="#164e63">What the 1 m tolerance means</text>
  <text x="72" y="548" font-family="Inter, Arial, sans-serif" font-size="14" fill="#155e75">Every removed source point stayed within 0.95 m of the kept line. Path length changed by only -0.39 m on a 4,365.04 m lap, so the file got smaller without reshaping the lap.</text>
</svg>
