<svg xmlns="http://www.w3.org/2000/svg" width="1100" height="520" viewBox="0 0 1100 520">
<rect width="100%" height="100%" fill="#101418"/>
<defs><marker id="arrow" viewBox="0 0 10 10" refX="9" refY="5" markerWidth="6" markerHeight="6" orient="auto-start-reverse"><path d="M 0 0 L 10 5 L 0 10 z" fill="#617282"/></marker></defs>
<text x="40" y="42" fill="#f3f7fb" font-family="Inter,Arial" font-size="25" font-weight="700">What encoded polyline buys us</text>
<text x="40" y="68" fill="#9fb0bf" font-family="Inter,Arial" font-size="13">Circuit GPS LineString → conservative simplification → delta/varint text string.</text>
<polyline points="698.2,240.0 764.2,225.7 784.6,222.2 801.9,222.0 847.2,227.1 852.5,226.3 856.0,222.5 862.1,209.0 864.1,206.3 867.9,205.0 872.1,205.5 876.0,207.4 879.0,210.9 881.0,215.8 881.0,221.7 874.8,244.3 871.4,255.1 865.6,265.5 859.1,275.2 839.5,298.1 827.2,311.8 823.0,314.2 819.9,314.8 816.5,314.8 809.2,312.4 804.9,311.6 801.1,312.1 798.0,313.7 766.5,339.5 752.0,358.1 744.3,364.0 736.2,367.3 727.8,369.4 721.2,370.2 667.5,369.9 664.4,371.8 661.7,374.8 660.6,380.4 662.9,392.3 661.3,397.4 658.7,402.0 655.6,405.2 651.7,408.2 648.3,409.8 641.4,412.2 622.2,416.8 575.7,420.0 555.4,419.7 538.9,419.2 520.8,417.8 495.1,414.1 441.3,400.6 436.4,398.5 434.4,395.2 433.3,386.9 431.7,383.1 429.8,379.4 425.6,375.3 420.6,372.4 414.1,369.7 360.3,356.5 331.2,351.1 310.8,349.5 282.8,348.7 275.5,349.5 227.9,359.5 222.5,359.5 219.8,357.0 219.0,352.7 220.2,350.0 222.1,348.2 224.0,347.6 256.3,344.1 262.4,342.0 289.3,328.8 381.1,293.8 612.6,245.4 615.7,245.9 618.3,248.1 619.5,251.6 622.2,254.0 624.5,255.1 628.3,254.8 698.2,240.0" fill="none" stroke="#35c2ff" stroke-width="10" stroke-linecap="round" stroke-linejoin="round" opacity="0.25"/>
<polyline points="698.2,240.0 764.2,225.7 784.6,222.2 801.9,222.0 847.2,227.1 852.5,226.3 856.0,222.5 862.1,209.0 864.1,206.3 867.9,205.0 872.1,205.5 876.0,207.4 879.0,210.9 881.0,215.8 881.0,221.7 874.8,244.3 871.4,255.1 865.6,265.5 859.1,275.2 839.5,298.1 827.2,311.8 823.0,314.2 819.9,314.8 816.5,314.8 809.2,312.4 804.9,311.6 801.1,312.1 798.0,313.7 766.5,339.5 752.0,358.1 744.3,364.0 736.2,367.3 727.8,369.4 721.2,370.2 667.5,369.9 664.4,371.8 661.7,374.8 660.6,380.4 662.9,392.3 661.3,397.4 658.7,402.0 655.6,405.2 651.7,408.2 648.3,409.8 641.4,412.2 622.2,416.8 575.7,420.0 555.4,419.7 538.9,419.2 520.8,417.8 495.1,414.1 441.3,400.6 436.4,398.5 434.4,395.2 433.3,386.9 431.7,383.1 429.8,379.4 425.6,375.3 420.6,372.4 414.1,369.7 360.3,356.5 331.2,351.1 310.8,349.5 282.8,348.7 275.5,349.5 227.9,359.5 222.5,359.5 219.8,357.0 219.0,352.7 220.2,350.0 222.1,348.2 224.0,347.6 256.3,344.1 262.4,342.0 289.3,328.8 381.1,293.8 612.6,245.4 615.7,245.9 618.3,248.1 619.5,251.6 622.2,254.0 624.5,255.1 628.3,254.8 698.2,240.0" fill="none" stroke="#35c2ff" stroke-width="3" stroke-linecap="round" stroke-linejoin="round"/>
<circle cx="698.2" cy="240.0" r="5" fill="#ffb000"/><circle cx="862.1" cy="209.0" r="5" fill="#ffb000"/><circle cx="881.0" cy="221.7" r="5" fill="#ffb000"/><circle cx="823.0" cy="314.2" r="5" fill="#ffb000"/><circle cx="766.5" cy="339.5" r="5" fill="#ffb000"/><circle cx="664.4" cy="371.8" r="5" fill="#ffb000"/><circle cx="651.7" cy="408.2" r="5" fill="#ffb000"/><circle cx="520.8" cy="417.8" r="5" fill="#ffb000"/><circle cx="429.8" cy="379.4" r="5" fill="#ffb000"/><circle cx="282.8" cy="348.7" r="5" fill="#ffb000"/><circle cx="222.1" cy="348.2" r="5" fill="#ffb000"/><circle cx="615.7" cy="245.9" r="5" fill="#ffb000"/>
<rect x="50" y="95" width="220" height="92" rx="8" fill="#18212a" stroke="#2a3946"/>
<text x="66" y="125" fill="#f3f7fb" font-family="Inter,Arial" font-size="15" font-weight="700">1. Quantize</text>
<text x="66" y="151" fill="#9fb0bf" font-family="Inter,Arial" font-size="12">lat/lon → integers</text>
<text x="66" y="169" fill="#9fb0bf" font-family="Inter,Arial" font-size="12">precision 5 ≈ 1.1 m</text>
<path d="M 276 141 L 300 141" stroke="#617282" stroke-width="2" marker-end="url(#arrow)"/>
<rect x="310" y="95" width="220" height="92" rx="8" fill="#18212a" stroke="#2a3946"/>
<text x="326" y="125" fill="#f3f7fb" font-family="Inter,Arial" font-size="15" font-weight="700">2. Delta encode</text>
<text x="326" y="151" fill="#9fb0bf" font-family="Inter,Arial" font-size="12">store movement from</text>
<text x="326" y="169" fill="#9fb0bf" font-family="Inter,Arial" font-size="12">previous point</text>
<path d="M 536 141 L 560 141" stroke="#617282" stroke-width="2" marker-end="url(#arrow)"/>
<rect x="570" y="95" width="220" height="92" rx="8" fill="#18212a" stroke="#2a3946"/>
<text x="586" y="125" fill="#f3f7fb" font-family="Inter,Arial" font-size="15" font-weight="700">3. Varint chars</text>
<text x="586" y="151" fill="#9fb0bf" font-family="Inter,Arial" font-size="12">small deltas become</text>
<text x="586" y="169" fill="#9fb0bf" font-family="Inter,Arial" font-size="12">short text</text>
<path d="M 796 141 L 820 141" stroke="#617282" stroke-width="2" marker-end="url(#arrow)"/>
<rect x="830" y="95" width="220" height="92" rx="8" fill="#18212a" stroke="#2a3946"/>
<text x="846" y="125" fill="#f3f7fb" font-family="Inter,Arial" font-size="15" font-weight="700">4. Render anywhere</text>
<text x="846" y="151" fill="#9fb0bf" font-family="Inter,Arial" font-size="12">decode in Maps,</text>
<text x="846" y="169" fill="#9fb0bf" font-family="Inter,Arial" font-size="12">Mapbox, Leaflet, etc.</text>
<rect x="50" y="432" width="1000" height="54" rx="8" fill="#18212a" stroke="#2a3946"/>
<text x="70" y="465" fill="#ffb000" font-family="JetBrains Mono,monospace" font-size="16">kavtGh_w_MvIiBhBYxAAjFd@ZEP[^cBHSRITBRLNXHb@?j@_fDQnA...</text>
</svg>
