<svg xmlns="http://www.w3.org/2000/svg" width="1100" height="760" viewBox="0 0 1100 760">
<rect width="100%" height="100%" fill="#101418"/>
<text x="40" y="36" fill="#f3f7fb" font-family="Inter,Arial" font-size="24" font-weight="700">2025 F1 circuit GPS shape validation</text>
<text x="40" y="60" fill="#9fb0bf" font-family="Inter,Arial" font-size="13">Repo GPS LineString vs FastF1 local X/Y shape after similarity fit. Lower is better.</text>
<line x1="170" y1="590.0" x2="1060" y2="590.0" stroke="#24313c" stroke-width="1"/>
<text x="158" y="594.0" fill="#8da0af" font-family="JetBrains Mono,monospace" font-size="11" text-anchor="end">0</text>
<line x1="170" y1="433.4" x2="1060" y2="433.4" stroke="#24313c" stroke-width="1"/>
<text x="158" y="437.4" fill="#8da0af" font-family="JetBrains Mono,monospace" font-size="11" text-anchor="end">5</text>
<line x1="170" y1="276.9" x2="1060" y2="276.9" stroke="#24313c" stroke-width="1"/>
<text x="158" y="280.9" fill="#8da0af" font-family="JetBrains Mono,monospace" font-size="11" text-anchor="end">10</text>
<line x1="170" y1="120.3" x2="1060" y2="120.3" stroke="#24313c" stroke-width="1"/>
<text x="158" y="124.3" fill="#8da0af" font-family="JetBrains Mono,monospace" font-size="11" text-anchor="end">15</text>
<line x1="170" y1="-36.2" x2="1060" y2="-36.2" stroke="#24313c" stroke-width="1"/>
<text x="158" y="-32.2" fill="#8da0af" font-family="JetBrains Mono,monospace" font-size="11" text-anchor="end">20</text>
<text x="60" y="325.0" transform="rotate(-90 60 325.0)" fill="#9fb0bf" font-family="Inter,Arial" font-size="13">RMSE meters</text>
<rect x="172.0" y="345.0" width="16.5" height="245.0" fill="#35c2ff" rx="2"/>
<rect x="190.5" y="359.1" width="16.5" height="230.9" fill="#ffb000" rx="2"/>
<text x="190.5" y="615" fill="#b8c7d3" font-family="Inter,Arial" font-size="10" text-anchor="end" transform="rotate(-55 190.5 615)">Melbourne</text>
<rect x="209.1" y="293.7" width="16.5" height="296.3" fill="#35c2ff" rx="2"/>
<rect x="227.6" y="230.6" width="16.5" height="359.4" fill="#ffb000" rx="2"/>
<text x="227.6" y="615" fill="#b8c7d3" font-family="Inter,Arial" font-size="10" text-anchor="end" transform="rotate(-55 227.6 615)">Shanghai</text>
<rect x="246.2" y="438.5" width="16.5" height="151.5" fill="#35c2ff" rx="2"/>
<rect x="264.7" y="425.9" width="16.5" height="164.1" fill="#ffb000" rx="2"/>
<text x="264.7" y="615" fill="#b8c7d3" font-family="Inter,Arial" font-size="10" text-anchor="end" transform="rotate(-55 264.7 615)">Suzuka</text>
<rect x="283.2" y="363.7" width="16.5" height="226.3" fill="#35c2ff" rx="2"/>
<rect x="301.8" y="231.3" width="16.5" height="358.7" fill="#ffb000" rx="2"/>
<text x="301.8" y="615" fill="#b8c7d3" font-family="Inter,Arial" font-size="10" text-anchor="end" transform="rotate(-55 301.8 615)">Sakhir</text>
<rect x="320.3" y="419.7" width="16.5" height="170.3" fill="#35c2ff" rx="2"/>
<rect x="338.9" y="394.9" width="16.5" height="195.1" fill="#ffb000" rx="2"/>
<text x="338.9" y="615" fill="#b8c7d3" font-family="Inter,Arial" font-size="10" text-anchor="end" transform="rotate(-55 338.9 615)">Jeddah</text>
<rect x="357.4" y="418.0" width="16.5" height="172.0" fill="#35c2ff" rx="2"/>
<rect x="376.0" y="398.0" width="16.5" height="192.0" fill="#ffb000" rx="2"/>
<text x="376.0" y="615" fill="#b8c7d3" font-family="Inter,Arial" font-size="10" text-anchor="end" transform="rotate(-55 376.0 615)">Miami Gard</text>
<rect x="394.5" y="449.0" width="16.5" height="141.0" fill="#35c2ff" rx="2"/>
<rect x="413.0" y="359.0" width="16.5" height="231.0" fill="#ffb000" rx="2"/>
<text x="413.0" y="615" fill="#b8c7d3" font-family="Inter,Arial" font-size="10" text-anchor="end" transform="rotate(-55 413.0 615)">Imola</text>
<rect x="431.6" y="364.9" width="16.5" height="225.1" fill="#35c2ff" rx="2"/>
<rect x="450.1" y="401.0" width="16.5" height="189.0" fill="#ffb000" rx="2"/>
<text x="450.1" y="615" fill="#b8c7d3" font-family="Inter,Arial" font-size="10" text-anchor="end" transform="rotate(-55 450.1 615)">Monaco</text>
<rect x="468.7" y="423.3" width="16.5" height="166.7" fill="#35c2ff" rx="2"/>
<rect x="487.2" y="456.8" width="16.5" height="133.2" fill="#ffb000" rx="2"/>
<text x="487.2" y="615" fill="#b8c7d3" font-family="Inter,Arial" font-size="10" text-anchor="end" transform="rotate(-55 487.2 615)">Barcelona</text>
<rect x="505.8" y="433.2" width="16.5" height="156.8" fill="#35c2ff" rx="2"/>
<rect x="524.3" y="132.3" width="16.5" height="457.7" fill="#ffb000" rx="2"/>
<text x="524.3" y="615" fill="#b8c7d3" font-family="Inter,Arial" font-size="10" text-anchor="end" transform="rotate(-55 524.3 615)">Montréal</text>
<rect x="542.8" y="468.0" width="16.5" height="122.0" fill="#35c2ff" rx="2"/>
<rect x="561.4" y="446.3" width="16.5" height="143.7" fill="#ffb000" rx="2"/>
<text x="561.4" y="615" fill="#b8c7d3" font-family="Inter,Arial" font-size="10" text-anchor="end" transform="rotate(-55 561.4 615)">Spielberg</text>
<rect x="579.9" y="356.7" width="16.5" height="233.3" fill="#35c2ff" rx="2"/>
<rect x="598.5" y="303.5" width="16.5" height="286.5" fill="#ffb000" rx="2"/>
<text x="598.5" y="615" fill="#b8c7d3" font-family="Inter,Arial" font-size="10" text-anchor="end" transform="rotate(-55 598.5 615)">Silverston</text>
<rect x="617.0" y="365.6" width="16.5" height="224.4" fill="#35c2ff" rx="2"/>
<rect x="635.5" y="362.4" width="16.5" height="227.6" fill="#ffb000" rx="2"/>
<text x="635.5" y="615" fill="#b8c7d3" font-family="Inter,Arial" font-size="10" text-anchor="end" transform="rotate(-55 635.5 615)">Spa-Franco</text>
<rect x="654.1" y="452.2" width="16.5" height="137.8" fill="#35c2ff" rx="2"/>
<rect x="672.6" y="412.1" width="16.5" height="177.9" fill="#ffb000" rx="2"/>
<text x="672.6" y="615" fill="#b8c7d3" font-family="Inter,Arial" font-size="10" text-anchor="end" transform="rotate(-55 672.6 615)">Budapest</text>
<rect x="691.2" y="320.7" width="16.5" height="269.3" fill="#35c2ff" rx="2"/>
<rect x="709.7" y="349.0" width="16.5" height="241.0" fill="#ffb000" rx="2"/>
<text x="709.7" y="615" fill="#b8c7d3" font-family="Inter,Arial" font-size="10" text-anchor="end" transform="rotate(-55 709.7 615)">Zandvoort</text>
<rect x="728.2" y="398.7" width="16.5" height="191.3" fill="#35c2ff" rx="2"/>
<rect x="746.8" y="465.0" width="16.5" height="125.0" fill="#ffb000" rx="2"/>
<text x="746.8" y="615" fill="#b8c7d3" font-family="Inter,Arial" font-size="10" text-anchor="end" transform="rotate(-55 746.8 615)">Monza</text>
<rect x="765.3" y="431.2" width="16.5" height="158.8" fill="#35c2ff" rx="2"/>
<rect x="783.9" y="436.7" width="16.5" height="153.3" fill="#ffb000" rx="2"/>
<text x="783.9" y="615" fill="#b8c7d3" font-family="Inter,Arial" font-size="10" text-anchor="end" transform="rotate(-55 783.9 615)">Baku</text>
<rect x="802.4" y="129.1" width="16.5" height="460.9" fill="#35c2ff" rx="2"/>
<rect x="821.0" y="282.4" width="16.5" height="307.6" fill="#ffb000" rx="2"/>
<text x="821.0" y="615" fill="#b8c7d3" font-family="Inter,Arial" font-size="10" text-anchor="end" transform="rotate(-55 821.0 615)">Marina Bay</text>
<rect x="839.5" y="367.1" width="16.5" height="222.9" fill="#35c2ff" rx="2"/>
<rect x="858.0" y="339.1" width="16.5" height="250.9" fill="#ffb000" rx="2"/>
<text x="858.0" y="615" fill="#b8c7d3" font-family="Inter,Arial" font-size="10" text-anchor="end" transform="rotate(-55 858.0 615)">Austin</text>
<rect x="876.6" y="369.6" width="16.5" height="220.4" fill="#35c2ff" rx="2"/>
<rect x="895.1" y="386.8" width="16.5" height="203.2" fill="#ffb000" rx="2"/>
<text x="895.1" y="615" fill="#b8c7d3" font-family="Inter,Arial" font-size="10" text-anchor="end" transform="rotate(-55 895.1 615)">Mexico Cit</text>
<rect x="913.7" y="244.2" width="16.5" height="345.8" fill="#35c2ff" rx="2"/>
<rect x="932.2" y="271.8" width="16.5" height="318.2" fill="#ffb000" rx="2"/>
<text x="932.2" y="615" fill="#b8c7d3" font-family="Inter,Arial" font-size="10" text-anchor="end" transform="rotate(-55 932.2 615)">São Paulo</text>
<rect x="950.8" y="369.1" width="16.5" height="220.9" fill="#35c2ff" rx="2"/>
<rect x="969.3" y="224.9" width="16.5" height="365.1" fill="#ffb000" rx="2"/>
<text x="969.3" y="615" fill="#b8c7d3" font-family="Inter,Arial" font-size="10" text-anchor="end" transform="rotate(-55 969.3 615)">Las Vegas</text>
<rect x="987.8" y="396.3" width="16.5" height="193.7" fill="#35c2ff" rx="2"/>
<rect x="1006.4" y="444.8" width="16.5" height="145.2" fill="#ffb000" rx="2"/>
<text x="1006.4" y="615" fill="#b8c7d3" font-family="Inter,Arial" font-size="10" text-anchor="end" transform="rotate(-55 1006.4 615)">Lusail</text>
<rect x="1024.9" y="281.1" width="16.5" height="308.9" fill="#35c2ff" rx="2"/>
<rect x="1043.5" y="198.7" width="16.5" height="391.3" fill="#ffb000" rx="2"/>
<text x="1043.5" y="615" fill="#b8c7d3" font-family="Inter,Arial" font-size="10" text-anchor="end" transform="rotate(-55 1043.5 615)">Yas Island</text>
<rect x="800" y="28" width="14" height="14" fill="#35c2ff"/><text x="820" y="40" fill="#dce8f1" font-family="Inter,Arial" font-size="12">Best single FastF1 lap</text>
<rect x="800" y="50" width="14" height="14" fill="#ffb000"/><text x="820" y="62" fill="#dce8f1" font-family="Inter,Arial" font-size="12">Average of best 5 laps</text>
</svg>