<svg xmlns="http://www.w3.org/2000/svg" width="1380" height="766" viewBox="0 0 1380 766">
<rect width="100%" height="100%" fill="#f8fafc"/>
<text x="34.0" y="42.0" font-family="Inter, Arial, sans-serif" font-size="24" font-weight="700" fill="#111827">2025 oracle-vs-FastF1 shape RMSE by circuit</text>
<text x="34.0" y="68.0" font-family="Inter, Arial, sans-serif" font-size="14" font-weight="400" fill="#475569">Green is the best single validated lap. Slate is the average of the best five fitted laps.</text>
<text x="34.0" y="90.0" font-family="Inter, Arial, sans-serif" font-size="14" font-weight="400" fill="#475569">Lower is better. Averaging can help or hurt because racing lines are not centerlines.</text>
<line x1="390.0" y1="138" x2="390.0" y2="726" stroke="#e2e8f0"/>
<text x="384.0" y="132.0" font-family="Inter, Arial, sans-serif" font-size="11" font-weight="400" fill="#64748b">0</text>
<line x1="681.9" y1="138" x2="681.9" y2="726" stroke="#e2e8f0"/>
<text x="675.9" y="132.0" font-family="Inter, Arial, sans-serif" font-size="11" font-weight="400" fill="#64748b">5</text>
<line x1="973.7" y1="138" x2="973.7" y2="726" stroke="#e2e8f0"/>
<text x="967.7" y="132.0" font-family="Inter, Arial, sans-serif" font-size="11" font-weight="400" fill="#64748b">10</text>
<line x1="1265.6" y1="138" x2="1265.6" y2="726" stroke="#e2e8f0"/>
<text x="1259.6" y="132.0" font-family="Inter, Arial, sans-serif" font-size="11" font-weight="400" fill="#64748b">15</text>
<text x="390.0" y="116.0" font-family="Inter, Arial, sans-serif" font-size="12" font-weight="400" fill="#64748b">RMSE (m)</text>
<text x="34.0" y="164.0" font-family="Inter, Arial, sans-serif" font-size="12" font-weight="400" fill="#334155">01 Australian GP</text>
<line x1="390" y1="160.0" x2="863.5" y2="160.0" stroke="#94a3b8" stroke-width="3" opacity="0.9"/>
<circle cx="846.8" cy="160.0" r="4.4" fill="#059669"/>
<circle cx="863.5" cy="160.0" r="4.0" fill="#334155"/>
<text x="1230.0" y="164.0" font-family="Inter, Arial, sans-serif" font-size="11" font-weight="400" fill="#475569">7.8 / 8.1</text>
<text x="34.0" y="188.0" font-family="Inter, Arial, sans-serif" font-size="12" font-weight="400" fill="#334155">02 Chinese GP</text>
<line x1="390" y1="184.0" x2="1011.2" y2="184.0" stroke="#94a3b8" stroke-width="3" opacity="0.9"/>
<circle cx="942.4" cy="184.0" r="4.4" fill="#059669"/>
<circle cx="1011.2" cy="184.0" r="4.0" fill="#334155"/>
<text x="1230.0" y="188.0" font-family="Inter, Arial, sans-serif" font-size="11" font-weight="400" fill="#475569">9.5 / 10.6</text>
<text x="34.0" y="212.0" font-family="Inter, Arial, sans-serif" font-size="12" font-weight="400" fill="#334155">03 Japanese GP</text>
<line x1="390" y1="208.0" x2="616.3" y2="208.0" stroke="#94a3b8" stroke-width="3" opacity="0.9"/>
<circle cx="643.7" cy="208.0" r="4.4" fill="#059669"/>
<circle cx="616.3" cy="208.0" r="4.0" fill="#334155"/>
<text x="1230.0" y="212.0" font-family="Inter, Arial, sans-serif" font-size="11" font-weight="400" fill="#475569">4.3 / 3.9</text>
<text x="34.0" y="236.0" font-family="Inter, Arial, sans-serif" font-size="12" font-weight="400" fill="#334155">04 Bahrain GP</text>
<line x1="390" y1="232.0" x2="970.0" y2="232.0" stroke="#94a3b8" stroke-width="3" opacity="0.9"/>
<circle cx="810.3" cy="232.0" r="4.4" fill="#059669"/>
<circle cx="970.0" cy="232.0" r="4.0" fill="#334155"/>
<text x="1230.0" y="236.0" font-family="Inter, Arial, sans-serif" font-size="11" font-weight="400" fill="#475569">7.2 / 9.9</text>
<text x="34.0" y="260.0" font-family="Inter, Arial, sans-serif" font-size="12" font-weight="400" fill="#334155">05 Saudi Arabian GP</text>
<line x1="390" y1="256.0" x2="828.8" y2="256.0" stroke="#94a3b8" stroke-width="3" opacity="0.9"/>
<circle cx="707.5" cy="256.0" r="4.4" fill="#059669"/>
<circle cx="828.8" cy="256.0" r="4.0" fill="#334155"/>
<text x="1230.0" y="260.0" font-family="Inter, Arial, sans-serif" font-size="11" font-weight="400" fill="#475569">5.4 / 7.5</text>
<text x="34.0" y="284.0" font-family="Inter, Arial, sans-serif" font-size="12" font-weight="400" fill="#334155">06 Miami GP</text>
<line x1="390" y1="280.0" x2="766.7" y2="280.0" stroke="#94a3b8" stroke-width="3" opacity="0.9"/>
<circle cx="708.8" cy="280.0" r="4.4" fill="#059669"/>
<circle cx="766.7" cy="280.0" r="4.0" fill="#334155"/>
<text x="1230.0" y="284.0" font-family="Inter, Arial, sans-serif" font-size="11" font-weight="400" fill="#475569">5.5 / 6.5</text>
<text x="34.0" y="308.0" font-family="Inter, Arial, sans-serif" font-size="12" font-weight="400" fill="#334155">07 Emilia Romagna GP</text>
<line x1="390" y1="304.0" x2="672.6" y2="304.0" stroke="#94a3b8" stroke-width="3" opacity="0.9"/>
<circle cx="652.9" cy="304.0" r="4.4" fill="#059669"/>
<circle cx="672.6" cy="304.0" r="4.0" fill="#334155"/>
<text x="1230.0" y="308.0" font-family="Inter, Arial, sans-serif" font-size="11" font-weight="400" fill="#475569">4.5 / 4.8</text>
<text x="34.0" y="332.0" font-family="Inter, Arial, sans-serif" font-size="12" font-weight="400" fill="#334155">08 Monaco GP</text>
<line x1="390" y1="328.0" x2="745.7" y2="328.0" stroke="#94a3b8" stroke-width="3" opacity="0.9"/>
<circle cx="754.2" cy="328.0" r="4.4" fill="#059669"/>
<circle cx="745.7" cy="328.0" r="4.0" fill="#334155"/>
<text x="1230.0" y="332.0" font-family="Inter, Arial, sans-serif" font-size="11" font-weight="400" fill="#475569">6.2 / 6.1</text>
<text x="34.0" y="356.0" font-family="Inter, Arial, sans-serif" font-size="12" font-weight="400" fill="#334155">09 Spanish GP</text>
<line x1="390" y1="352.0" x2="637.5" y2="352.0" stroke="#94a3b8" stroke-width="3" opacity="0.9"/>
<circle cx="666.2" cy="352.0" r="4.4" fill="#059669"/>
<circle cx="637.5" cy="352.0" r="4.0" fill="#334155"/>
<text x="1230.0" y="356.0" font-family="Inter, Arial, sans-serif" font-size="11" font-weight="400" fill="#475569">4.7 / 4.2</text>
<text x="34.0" y="380.0" font-family="Inter, Arial, sans-serif" font-size="12" font-weight="400" fill="#334155">10 Canadian GP</text>
<line x1="390" y1="376.0" x2="1113.9" y2="376.0" stroke="#94a3b8" stroke-width="3" opacity="0.9"/>
<circle cx="682.4" cy="376.0" r="4.4" fill="#059669"/>
<circle cx="1113.9" cy="376.0" r="4.0" fill="#334155"/>
<text x="1230.0" y="380.0" font-family="Inter, Arial, sans-serif" font-size="11" font-weight="400" fill="#475569">5.0 / 12.4</text>
<text x="34.0" y="404.0" font-family="Inter, Arial, sans-serif" font-size="12" font-weight="400" fill="#334155">11 Austrian GP</text>
<line x1="390" y1="400.0" x2="598.9" y2="400.0" stroke="#94a3b8" stroke-width="3" opacity="0.9"/>
<circle cx="617.4" cy="400.0" r="4.4" fill="#059669"/>
<circle cx="598.9" cy="400.0" r="4.0" fill="#334155"/>
<text x="1230.0" y="404.0" font-family="Inter, Arial, sans-serif" font-size="11" font-weight="400" fill="#475569">3.9 / 3.6</text>
<text x="34.0" y="428.0" font-family="Inter, Arial, sans-serif" font-size="12" font-weight="400" fill="#334155">12 British GP</text>
<line x1="390" y1="424.0" x2="832.2" y2="424.0" stroke="#94a3b8" stroke-width="3" opacity="0.9"/>
<circle cx="804.4" cy="424.0" r="4.4" fill="#059669"/>
<circle cx="832.2" cy="424.0" r="4.0" fill="#334155"/>
<text x="1230.0" y="428.0" font-family="Inter, Arial, sans-serif" font-size="11" font-weight="400" fill="#475569">7.1 / 7.6</text>
<text x="34.0" y="452.0" font-family="Inter, Arial, sans-serif" font-size="12" font-weight="400" fill="#334155">13 Belgian GP</text>
<line x1="390" y1="448.0" x2="769.9" y2="448.0" stroke="#94a3b8" stroke-width="3" opacity="0.9"/>
<circle cx="808.4" cy="448.0" r="4.4" fill="#059669"/>
<circle cx="769.9" cy="448.0" r="4.0" fill="#334155"/>
<text x="1230.0" y="452.0" font-family="Inter, Arial, sans-serif" font-size="11" font-weight="400" fill="#475569">7.2 / 6.5</text>
<text x="34.0" y="476.0" font-family="Inter, Arial, sans-serif" font-size="12" font-weight="400" fill="#334155">14 Hungarian GP</text>
<line x1="390" y1="472.0" x2="715.4" y2="472.0" stroke="#94a3b8" stroke-width="3" opacity="0.9"/>
<circle cx="646.3" cy="472.0" r="4.4" fill="#059669"/>
<circle cx="715.4" cy="472.0" r="4.0" fill="#334155"/>
<text x="1230.0" y="476.0" font-family="Inter, Arial, sans-serif" font-size="11" font-weight="400" fill="#475569">4.4 / 5.6</text>
<text x="34.0" y="500.0" font-family="Inter, Arial, sans-serif" font-size="12" font-weight="400" fill="#334155">15 Dutch GP</text>
<line x1="390" y1="496.0" x2="828.9" y2="496.0" stroke="#94a3b8" stroke-width="3" opacity="0.9"/>
<circle cx="869.3" cy="496.0" r="4.4" fill="#059669"/>
<circle cx="828.9" cy="496.0" r="4.0" fill="#334155"/>
<text x="1230.0" y="500.0" font-family="Inter, Arial, sans-serif" font-size="11" font-weight="400" fill="#475569">8.2 / 7.5</text>
<text x="34.0" y="524.0" font-family="Inter, Arial, sans-serif" font-size="12" font-weight="400" fill="#334155">16 Italian GP</text>
<line x1="390" y1="520.0" x2="776.0" y2="520.0" stroke="#94a3b8" stroke-width="3" opacity="0.9"/>
<circle cx="738.2" cy="520.0" r="4.4" fill="#059669"/>
<circle cx="776.0" cy="520.0" r="4.0" fill="#334155"/>
<text x="1230.0" y="524.0" font-family="Inter, Arial, sans-serif" font-size="11" font-weight="400" fill="#475569">6.0 / 6.6</text>
<text x="34.0" y="548.0" font-family="Inter, Arial, sans-serif" font-size="12" font-weight="400" fill="#334155">17 Azerbaijan GP</text>
<line x1="390" y1="544.0" x2="659.9" y2="544.0" stroke="#94a3b8" stroke-width="3" opacity="0.9"/>
<circle cx="664.1" cy="544.0" r="4.4" fill="#059669"/>
<circle cx="659.9" cy="544.0" r="4.0" fill="#334155"/>
<text x="1230.0" y="548.0" font-family="Inter, Arial, sans-serif" font-size="11" font-weight="400" fill="#475569">4.7 / 4.6</text>
<text x="34.0" y="572.0" font-family="Inter, Arial, sans-serif" font-size="12" font-weight="400" fill="#334155">18 Singapore GP</text>
<line x1="390" y1="568.0" x2="1009.8" y2="568.0" stroke="#94a3b8" stroke-width="3" opacity="0.9"/>
<circle cx="1180.0" cy="568.0" r="4.4" fill="#059669"/>
<circle cx="1009.8" cy="568.0" r="4.0" fill="#334155"/>
<text x="1230.0" y="572.0" font-family="Inter, Arial, sans-serif" font-size="11" font-weight="400" fill="#475569">13.5 / 10.6</text>
<text x="34.0" y="596.0" font-family="Inter, Arial, sans-serif" font-size="12" font-weight="400" fill="#334155">19 United States GP</text>
<line x1="390" y1="592.0" x2="783.2" y2="592.0" stroke="#94a3b8" stroke-width="3" opacity="0.9"/>
<circle cx="765.4" cy="592.0" r="4.4" fill="#059669"/>
<circle cx="783.2" cy="592.0" r="4.0" fill="#334155"/>
<text x="1230.0" y="596.0" font-family="Inter, Arial, sans-serif" font-size="11" font-weight="400" fill="#475569">6.4 / 6.7</text>
<text x="34.0" y="620.0" font-family="Inter, Arial, sans-serif" font-size="12" font-weight="400" fill="#334155">20 Mexico City GP</text>
<line x1="390" y1="616.0" x2="732.6" y2="616.0" stroke="#94a3b8" stroke-width="3" opacity="0.9"/>
<circle cx="732.8" cy="616.0" r="4.4" fill="#059669"/>
<circle cx="732.6" cy="616.0" r="4.0" fill="#334155"/>
<text x="1230.0" y="620.0" font-family="Inter, Arial, sans-serif" font-size="11" font-weight="400" fill="#475569">5.9 / 5.9</text>
<text x="34.0" y="644.0" font-family="Inter, Arial, sans-serif" font-size="12" font-weight="400" fill="#334155">21 São Paulo GP</text>
<line x1="390" y1="640.0" x2="973.7" y2="640.0" stroke="#94a3b8" stroke-width="3" opacity="0.9"/>
<circle cx="936.3" cy="640.0" r="4.4" fill="#059669"/>
<circle cx="973.7" cy="640.0" r="4.0" fill="#334155"/>
<text x="1230.0" y="644.0" font-family="Inter, Arial, sans-serif" font-size="11" font-weight="400" fill="#475569">9.4 / 10.0</text>
<text x="34.0" y="668.0" font-family="Inter, Arial, sans-serif" font-size="12" font-weight="400" fill="#334155">22 Las Vegas GP</text>
<line x1="390" y1="664.0" x2="1028.7" y2="664.0" stroke="#94a3b8" stroke-width="3" opacity="0.9"/>
<circle cx="801.8" cy="664.0" r="4.4" fill="#059669"/>
<circle cx="1028.7" cy="664.0" r="4.0" fill="#334155"/>
<text x="1230.0" y="668.0" font-family="Inter, Arial, sans-serif" font-size="11" font-weight="400" fill="#475569">7.1 / 10.9</text>
<text x="34.0" y="692.0" font-family="Inter, Arial, sans-serif" font-size="12" font-weight="400" fill="#334155">23 Qatar GP</text>
<line x1="390" y1="688.0" x2="618.5" y2="688.0" stroke="#94a3b8" stroke-width="3" opacity="0.9"/>
<circle cx="676.8" cy="688.0" r="4.4" fill="#059669"/>
<circle cx="618.5" cy="688.0" r="4.0" fill="#334155"/>
<text x="1230.0" y="692.0" font-family="Inter, Arial, sans-serif" font-size="11" font-weight="400" fill="#475569">4.9 / 3.9</text>
<text x="34.0" y="716.0" font-family="Inter, Arial, sans-serif" font-size="12" font-weight="400" fill="#334155">24 Abu Dhabi GP</text>
<line x1="390" y1="712.0" x2="828.0" y2="712.0" stroke="#94a3b8" stroke-width="3" opacity="0.9"/>
<circle cx="753.2" cy="712.0" r="4.4" fill="#059669"/>
<circle cx="828.0" cy="712.0" r="4.0" fill="#334155"/>
<text x="1230.0" y="716.0" font-family="Inter, Arial, sans-serif" font-size="11" font-weight="400" fill="#475569">6.2 / 7.5</text>
<rect x="650" y="102" width="18" height="8" fill="#059669"/>
<text x="675.0" y="110.0" font-family="Inter, Arial, sans-serif" font-size="12" font-weight="400" fill="#475569">best lap</text>
<rect x="748" y="102" width="18" height="8" fill="#334155"/>
<text x="773.0" y="110.0" font-family="Inter, Arial, sans-serif" font-size="12" font-weight="400" fill="#475569">avg of best 5</text>
</svg>