<svg xmlns="http://www.w3.org/2000/svg" width="1320" height="734" viewBox="0 0 1320 734">
<rect width="100%" height="100%" fill="#f8fafc"/>
<text x="34.0" y="42.0" font-family="Inter, Arial, sans-serif" font-size="24" font-weight="700" fill="#111827">2025 oracle-vs-FastF1 shape RMSE by circuit</text>
<text x="34.0" y="68.0" font-family="Inter, Arial, sans-serif" font-size="14" font-weight="400" fill="#475569">Green is the best single validated lap. Slate is the average of the best five fitted laps.</text>
<text x="34.0" y="90.0" font-family="Inter, Arial, sans-serif" font-size="14" font-weight="400" fill="#475569">Lower is better. Averaging can help or hurt because racing lines are not centerlines.</text>
<line x1="360.0" y1="106" x2="360.0" y2="694" stroke="#e2e8f0"/>
<text x="354.0" y="100.0" font-family="Inter, Arial, sans-serif" font-size="11" font-weight="400" fill="#64748b">0</text>
<line x1="666.6" y1="106" x2="666.6" y2="694" stroke="#e2e8f0"/>
<text x="660.6" y="100.0" font-family="Inter, Arial, sans-serif" font-size="11" font-weight="400" fill="#64748b">5</text>
<line x1="973.3" y1="106" x2="973.3" y2="694" stroke="#e2e8f0"/>
<text x="967.3" y="100.0" font-family="Inter, Arial, sans-serif" font-size="11" font-weight="400" fill="#64748b">10</text>
<line x1="1279.9" y1="106" x2="1279.9" y2="694" stroke="#e2e8f0"/>
<text x="1273.9" y="100.0" font-family="Inter, Arial, sans-serif" font-size="11" font-weight="400" fill="#64748b">15</text>
<text x="60.0" y="367.0" font-family="Inter, Arial, sans-serif" font-size="13" font-weight="400" fill="#9fb0bf">RMSE meters</text>
<text x="34.0" y="132.0" font-family="Inter, Arial, sans-serif" font-size="12" font-weight="400" fill="#334155">01 Australian GP</text>
<line x1="360" y1="128.0" x2="857.4" y2="128.0" stroke="#94a3b8" stroke-width="3" opacity="0.9"/>
<circle cx="840.0" cy="128.0" r="4.4" fill="#059669"/>
<circle cx="857.4" cy="128.0" r="4.0" fill="#334155"/>
<text x="1210.0" y="132.0" font-family="Inter, Arial, sans-serif" font-size="11" font-weight="400" fill="#475569">7.8 / 8.1</text>
<text x="34.0" y="156.0" font-family="Inter, Arial, sans-serif" font-size="12" font-weight="400" fill="#334155">02 Chinese GP</text>
<line x1="360" y1="152.0" x2="1012.7" y2="152.0" stroke="#94a3b8" stroke-width="3" opacity="0.9"/>
<circle cx="940.4" cy="152.0" r="4.4" fill="#059669"/>
<circle cx="1012.7" cy="152.0" r="4.0" fill="#334155"/>
<text x="1210.0" y="156.0" font-family="Inter, Arial, sans-serif" font-size="11" font-weight="400" fill="#475569">9.5 / 10.6</text>
<text x="34.0" y="180.0" font-family="Inter, Arial, sans-serif" font-size="12" font-weight="400" fill="#334155">03 Japanese GP</text>
<line x1="360" y1="176.0" x2="597.7" y2="176.0" stroke="#94a3b8" stroke-width="3" opacity="0.9"/>
<circle cx="626.6" cy="176.0" r="4.4" fill="#059669"/>
<circle cx="597.7" cy="176.0" r="4.0" fill="#334155"/>
<text x="1210.0" y="180.0" font-family="Inter, Arial, sans-serif" font-size="11" font-weight="400" fill="#475569">4.3 / 3.9</text>
<text x="34.0" y="204.0" font-family="Inter, Arial, sans-serif" font-size="12" font-weight="400" fill="#334155">04 Bahrain GP</text>
<line x1="360" y1="200.0" x2="969.3" y2="200.0" stroke="#94a3b8" stroke-width="3" opacity="0.9"/>
<circle cx="801.6" cy="200.0" r="4.4" fill="#059669"/>
<circle cx="969.3" cy="200.0" r="4.0" fill="#334155"/>
<text x="1210.0" y="204.0" font-family="Inter, Arial, sans-serif" font-size="11" font-weight="400" fill="#475569">7.2 / 9.9</text>
<text x="34.0" y="228.0" font-family="Inter, Arial, sans-serif" font-size="12" font-weight="400" fill="#334155">05 Saudi Arabian GP</text>
<line x1="360" y1="224.0" x2="821.0" y2="224.0" stroke="#94a3b8" stroke-width="3" opacity="0.9"/>
<circle cx="693.6" cy="224.0" r="4.4" fill="#059669"/>
<circle cx="821.0" cy="224.0" r="4.0" fill="#334155"/>
<text x="1210.0" y="228.0" font-family="Inter, Arial, sans-serif" font-size="11" font-weight="400" fill="#475569">5.4 / 7.5</text>
<text x="34.0" y="252.0" font-family="Inter, Arial, sans-serif" font-size="12" font-weight="400" fill="#334155">06 Miami GP</text>
<line x1="360" y1="248.0" x2="755.8" y2="248.0" stroke="#94a3b8" stroke-width="3" opacity="0.9"/>
<circle cx="695.0" cy="248.0" r="4.4" fill="#059669"/>
<circle cx="755.8" cy="248.0" r="4.0" fill="#334155"/>
<text x="1210.0" y="252.0" font-family="Inter, Arial, sans-serif" font-size="11" font-weight="400" fill="#475569">5.5 / 6.5</text>
<text x="34.0" y="276.0" font-family="Inter, Arial, sans-serif" font-size="12" font-weight="400" fill="#334155">07 Emilia Romagna GP</text>
<line x1="360" y1="272.0" x2="656.9" y2="272.0" stroke="#94a3b8" stroke-width="3" opacity="0.9"/>
<circle cx="636.2" cy="272.0" r="4.4" fill="#059669"/>
<circle cx="656.9" cy="272.0" r="4.0" fill="#334155"/>
<text x="1210.0" y="276.0" font-family="Inter, Arial, sans-serif" font-size="11" font-weight="400" fill="#475569">4.5 / 4.8</text>
<text x="34.0" y="300.0" font-family="Inter, Arial, sans-serif" font-size="12" font-weight="400" fill="#334155">08 Monaco GP</text>
<line x1="360" y1="296.0" x2="733.7" y2="296.0" stroke="#94a3b8" stroke-width="3" opacity="0.9"/>
<circle cx="742.7" cy="296.0" r="4.4" fill="#059669"/>
<circle cx="733.7" cy="296.0" r="4.0" fill="#334155"/>
<text x="1210.0" y="300.0" font-family="Inter, Arial, sans-serif" font-size="11" font-weight="400" fill="#475569">6.2 / 6.1</text>
<text x="34.0" y="324.0" font-family="Inter, Arial, sans-serif" font-size="12" font-weight="400" fill="#334155">09 Spanish GP</text>
<line x1="360" y1="320.0" x2="620.0" y2="320.0" stroke="#94a3b8" stroke-width="3" opacity="0.9"/>
<circle cx="650.2" cy="320.0" r="4.4" fill="#059669"/>
<circle cx="620.0" cy="320.0" r="4.0" fill="#334155"/>
<text x="1210.0" y="324.0" font-family="Inter, Arial, sans-serif" font-size="11" font-weight="400" fill="#475569">4.7 / 4.2</text>
<text x="34.0" y="348.0" font-family="Inter, Arial, sans-serif" font-size="12" font-weight="400" fill="#334155">10 Canadian GP</text>
<line x1="360" y1="344.0" x2="1120.6" y2="344.0" stroke="#94a3b8" stroke-width="3" opacity="0.9"/>
<circle cx="667.2" cy="344.0" r="4.4" fill="#059669"/>
<circle cx="1120.6" cy="344.0" r="4.0" fill="#334155"/>
<text x="1210.0" y="348.0" font-family="Inter, Arial, sans-serif" font-size="11" font-weight="400" fill="#475569">5.0 / 12.4</text>
<text x="34.0" y="372.0" font-family="Inter, Arial, sans-serif" font-size="12" font-weight="400" fill="#334155">11 Austrian GP</text>
<line x1="360" y1="368.0" x2="579.5" y2="368.0" stroke="#94a3b8" stroke-width="3" opacity="0.9"/>
<circle cx="598.9" cy="368.0" r="4.4" fill="#059669"/>
<circle cx="579.5" cy="368.0" r="4.0" fill="#334155"/>
<text x="1210.0" y="372.0" font-family="Inter, Arial, sans-serif" font-size="11" font-weight="400" fill="#475569">3.9 / 3.6</text>
<text x="34.0" y="396.0" font-family="Inter, Arial, sans-serif" font-size="12" font-weight="400" fill="#334155">12 British GP</text>
<line x1="360" y1="392.0" x2="824.6" y2="392.0" stroke="#94a3b8" stroke-width="3" opacity="0.9"/>
<circle cx="795.4" cy="392.0" r="4.4" fill="#059669"/>
<circle cx="824.6" cy="392.0" r="4.0" fill="#334155"/>
<text x="1210.0" y="396.0" font-family="Inter, Arial, sans-serif" font-size="11" font-weight="400" fill="#475569">7.1 / 7.6</text>
<text x="34.0" y="420.0" font-family="Inter, Arial, sans-serif" font-size="12" font-weight="400" fill="#334155">13 Belgian GP</text>
<line x1="360" y1="416.0" x2="759.2" y2="416.0" stroke="#94a3b8" stroke-width="3" opacity="0.9"/>
<circle cx="799.6" cy="416.0" r="4.4" fill="#059669"/>
<circle cx="759.2" cy="416.0" r="4.0" fill="#334155"/>
<text x="1210.0" y="420.0" font-family="Inter, Arial, sans-serif" font-size="11" font-weight="400" fill="#475569">7.2 / 6.5</text>
<text x="34.0" y="444.0" font-family="Inter, Arial, sans-serif" font-size="12" font-weight="400" fill="#334155">14 Hungarian GP</text>
<line x1="360" y1="440.0" x2="701.9" y2="440.0" stroke="#94a3b8" stroke-width="3" opacity="0.9"/>
<circle cx="629.3" cy="440.0" r="4.4" fill="#059669"/>
<circle cx="701.9" cy="440.0" r="4.0" fill="#334155"/>
<text x="1210.0" y="444.0" font-family="Inter, Arial, sans-serif" font-size="11" font-weight="400" fill="#475569">4.4 / 5.6</text>
<text x="34.0" y="468.0" font-family="Inter, Arial, sans-serif" font-size="12" font-weight="400" fill="#334155">15 Dutch GP</text>
<line x1="360" y1="464.0" x2="821.1" y2="464.0" stroke="#94a3b8" stroke-width="3" opacity="0.9"/>
<circle cx="863.6" cy="464.0" r="4.4" fill="#059669"/>
<circle cx="821.1" cy="464.0" r="4.0" fill="#334155"/>
<text x="1210.0" y="468.0" font-family="Inter, Arial, sans-serif" font-size="11" font-weight="400" fill="#475569">8.2 / 7.5</text>
<text x="34.0" y="492.0" font-family="Inter, Arial, sans-serif" font-size="12" font-weight="400" fill="#334155">16 Italian GP</text>
<line x1="360" y1="488.0" x2="765.6" y2="488.0" stroke="#94a3b8" stroke-width="3" opacity="0.9"/>
<circle cx="725.9" cy="488.0" r="4.4" fill="#059669"/>
<circle cx="765.6" cy="488.0" r="4.0" fill="#334155"/>
<text x="1210.0" y="492.0" font-family="Inter, Arial, sans-serif" font-size="11" font-weight="400" fill="#475569">6.0 / 6.6</text>
<text x="34.0" y="516.0" font-family="Inter, Arial, sans-serif" font-size="12" font-weight="400" fill="#334155">17 Azerbaijan GP</text>
<line x1="360" y1="512.0" x2="643.5" y2="512.0" stroke="#94a3b8" stroke-width="3" opacity="0.9"/>
<circle cx="648.0" cy="512.0" r="4.4" fill="#059669"/>
<circle cx="643.5" cy="512.0" r="4.0" fill="#334155"/>
<text x="1210.0" y="516.0" font-family="Inter, Arial, sans-serif" font-size="11" font-weight="400" fill="#475569">4.7 / 4.6</text>
<text x="34.0" y="540.0" font-family="Inter, Arial, sans-serif" font-size="12" font-weight="400" fill="#334155">18 Singapore GP</text>
<line x1="360" y1="536.0" x2="1011.1" y2="536.0" stroke="#94a3b8" stroke-width="3" opacity="0.9"/>
<circle cx="1190.0" cy="536.0" r="4.4" fill="#059669"/>
<circle cx="1011.1" cy="536.0" r="4.0" fill="#334155"/>
<text x="1210.0" y="540.0" font-family="Inter, Arial, sans-serif" font-size="11" font-weight="400" fill="#475569">13.5 / 10.6</text>
<text x="34.0" y="564.0" font-family="Inter, Arial, sans-serif" font-size="12" font-weight="400" fill="#334155">19 United States GP</text>
<line x1="360" y1="560.0" x2="773.1" y2="560.0" stroke="#94a3b8" stroke-width="3" opacity="0.9"/>
<circle cx="754.4" cy="560.0" r="4.4" fill="#059669"/>
<circle cx="773.1" cy="560.0" r="4.0" fill="#334155"/>
<text x="1210.0" y="564.0" font-family="Inter, Arial, sans-serif" font-size="11" font-weight="400" fill="#475569">6.4 / 6.7</text>
<text x="34.0" y="588.0" font-family="Inter, Arial, sans-serif" font-size="12" font-weight="400" fill="#334155">20 Mexico City GP</text>
<line x1="360" y1="584.0" x2="719.9" y2="584.0" stroke="#94a3b8" stroke-width="3" opacity="0.9"/>
<circle cx="720.1" cy="584.0" r="4.4" fill="#059669"/>
<circle cx="719.9" cy="584.0" r="4.0" fill="#334155"/>
<text x="1210.0" y="588.0" font-family="Inter, Arial, sans-serif" font-size="11" font-weight="400" fill="#475569">5.9 / 5.9</text>
<text x="34.0" y="612.0" font-family="Inter, Arial, sans-serif" font-size="12" font-weight="400" fill="#334155">21 São Paulo GP</text>
<line x1="360" y1="608.0" x2="973.3" y2="608.0" stroke="#94a3b8" stroke-width="3" opacity="0.9"/>
<circle cx="934.0" cy="608.0" r="4.4" fill="#059669"/>
<circle cx="973.3" cy="608.0" r="4.0" fill="#334155"/>
<text x="1210.0" y="612.0" font-family="Inter, Arial, sans-serif" font-size="11" font-weight="400" fill="#475569">9.4 / 10.0</text>
<text x="34.0" y="636.0" font-family="Inter, Arial, sans-serif" font-size="12" font-weight="400" fill="#334155">22 Las Vegas GP</text>
<line x1="360" y1="632.0" x2="1031.1" y2="632.0" stroke="#94a3b8" stroke-width="3" opacity="0.9"/>
<circle cx="792.6" cy="632.0" r="4.4" fill="#059669"/>
<circle cx="1031.1" cy="632.0" r="4.0" fill="#334155"/>
<text x="1210.0" y="636.0" font-family="Inter, Arial, sans-serif" font-size="11" font-weight="400" fill="#475569">7.1 / 10.9</text>
<text x="34.0" y="660.0" font-family="Inter, Arial, sans-serif" font-size="12" font-weight="400" fill="#334155">23 Qatar GP</text>
<line x1="360" y1="656.0" x2="600.0" y2="656.0" stroke="#94a3b8" stroke-width="3" opacity="0.9"/>
<circle cx="661.4" cy="656.0" r="4.4" fill="#059669"/>
<circle cx="600.0" cy="656.0" r="4.0" fill="#334155"/>
<text x="1210.0" y="660.0" font-family="Inter, Arial, sans-serif" font-size="11" font-weight="400" fill="#475569">4.9 / 3.9</text>
<text x="34.0" y="684.0" font-family="Inter, Arial, sans-serif" font-size="12" font-weight="400" fill="#334155">24 Abu Dhabi GP</text>
<line x1="360" y1="680.0" x2="820.2" y2="680.0" stroke="#94a3b8" stroke-width="3" opacity="0.9"/>
<circle cx="741.6" cy="680.0" r="4.4" fill="#059669"/>
<circle cx="820.2" cy="680.0" r="4.0" fill="#334155"/>
<text x="1210.0" y="684.0" font-family="Inter, Arial, sans-serif" font-size="11" font-weight="400" fill="#475569">6.2 / 7.5</text>
<rect x="360" y="76" width="18" height="8" fill="#059669"/>
<text x="385.0" y="84.0" font-family="Inter, Arial, sans-serif" font-size="12" font-weight="400" fill="#475569">best lap</text>
<rect x="455" y="76" width="18" height="8" fill="#334155"/>
<text x="480.0" y="84.0" font-family="Inter, Arial, sans-serif" font-size="12" font-weight="400" fill="#475569">avg of best 5</text>
</svg>