<svg xmlns="http://www.w3.org/2000/svg" width="1380" height="766" viewBox="0 0 1380 766">
<rect width="100%" height="100%" fill="#f8fafc"/>
<text x="34.0" y="42.0" font-family="Inter, Arial, sans-serif" font-size="24" font-weight="700" fill="#111827">2025 oracle-vs-FastF1 shape RMSE by circuit</text>
<text x="34.0" y="68.0" font-family="Inter, Arial, sans-serif" font-size="14" font-weight="400" fill="#475569">Green is the best single validated lap. Slate is the average of the best five fitted laps.</text>
<text x="34.0" y="90.0" font-family="Inter, Arial, sans-serif" font-size="14" font-weight="400" fill="#475569">Lower is better. Averaging can help or hurt because racing lines are not centerlines.</text>
<line x1="390.0" y1="138" x2="390.0" y2="726" stroke="#e2e8f0"/>
<text x="384.0" y="132.0" font-family="Inter, Arial, sans-serif" font-size="11" font-weight="400" fill="#64748b">0</text>
<line x1="666.9" y1="138" x2="666.9" y2="726" stroke="#e2e8f0"/>
<text x="660.9" y="132.0" font-family="Inter, Arial, sans-serif" font-size="11" font-weight="400" fill="#64748b">5</text>
<line x1="943.8" y1="138" x2="943.8" y2="726" stroke="#e2e8f0"/>
<text x="937.8" y="132.0" font-family="Inter, Arial, sans-serif" font-size="11" font-weight="400" fill="#64748b">10</text>
<line x1="1220.6" y1="138" x2="1220.6" y2="726" stroke="#e2e8f0"/>
<text x="1214.6" y="132.0" font-family="Inter, Arial, sans-serif" font-size="11" font-weight="400" fill="#64748b">15</text>
<text x="390.0" y="116.0" font-family="Inter, Arial, sans-serif" font-size="12" font-weight="400" fill="#64748b">RMSE (m)</text>
<text x="34.0" y="164.0" font-family="Inter, Arial, sans-serif" font-size="12" font-weight="400" fill="#334155">01 Australian GP</text>
<line x1="390" y1="160.0" x2="1021.3" y2="160.0" stroke="#94a3b8" stroke-width="3" opacity="0.9"/>
<circle cx="823.4" cy="160.0" r="4.4" fill="#059669"/>
<circle cx="1021.3" cy="160.0" r="4.0" fill="#334155"/>
<text x="1230.0" y="164.0" font-family="Inter, Arial, sans-serif" font-size="11" font-weight="400" fill="#475569">7.8 / 11.4</text>
<text x="34.0" y="188.0" font-family="Inter, Arial, sans-serif" font-size="12" font-weight="400" fill="#334155">02 Chinese GP</text>
<line x1="390" y1="184.0" x2="1011.1" y2="184.0" stroke="#94a3b8" stroke-width="3" opacity="0.9"/>
<circle cx="911.1" cy="184.0" r="4.4" fill="#059669"/>
<circle cx="1011.1" cy="184.0" r="4.0" fill="#334155"/>
<text x="1230.0" y="188.0" font-family="Inter, Arial, sans-serif" font-size="11" font-weight="400" fill="#475569">9.4 / 11.2</text>
<text x="34.0" y="212.0" font-family="Inter, Arial, sans-serif" font-size="12" font-weight="400" fill="#334155">03 Japanese GP</text>
<line x1="390" y1="208.0" x2="604.6" y2="208.0" stroke="#94a3b8" stroke-width="3" opacity="0.9"/>
<circle cx="630.7" cy="208.0" r="4.4" fill="#059669"/>
<circle cx="604.6" cy="208.0" r="4.0" fill="#334155"/>
<text x="1230.0" y="212.0" font-family="Inter, Arial, sans-serif" font-size="11" font-weight="400" fill="#475569">4.3 / 3.9</text>
<text x="34.0" y="236.0" font-family="Inter, Arial, sans-serif" font-size="12" font-weight="400" fill="#334155">04 Bahrain GP</text>
<line x1="390" y1="232.0" x2="936.2" y2="232.0" stroke="#94a3b8" stroke-width="3" opacity="0.9"/>
<circle cx="786.6" cy="232.0" r="4.4" fill="#059669"/>
<circle cx="936.2" cy="232.0" r="4.0" fill="#334155"/>
<text x="1230.0" y="236.0" font-family="Inter, Arial, sans-serif" font-size="11" font-weight="400" fill="#475569">7.2 / 9.9</text>
<text x="34.0" y="260.0" font-family="Inter, Arial, sans-serif" font-size="12" font-weight="400" fill="#334155">05 Saudi Arabian GP</text>
<line x1="390" y1="256.0" x2="764.9" y2="256.0" stroke="#94a3b8" stroke-width="3" opacity="0.9"/>
<circle cx="733.2" cy="256.0" r="4.4" fill="#059669"/>
<circle cx="764.9" cy="256.0" r="4.0" fill="#334155"/>
<text x="1230.0" y="260.0" font-family="Inter, Arial, sans-serif" font-size="11" font-weight="400" fill="#475569">6.2 / 6.8</text>
<text x="34.0" y="284.0" font-family="Inter, Arial, sans-serif" font-size="12" font-weight="400" fill="#334155">06 Miami GP</text>
<line x1="390" y1="280.0" x2="776.5" y2="280.0" stroke="#94a3b8" stroke-width="3" opacity="0.9"/>
<circle cx="774.1" cy="280.0" r="4.4" fill="#059669"/>
<circle cx="776.5" cy="280.0" r="4.0" fill="#334155"/>
<text x="1230.0" y="284.0" font-family="Inter, Arial, sans-serif" font-size="11" font-weight="400" fill="#475569">6.9 / 7.0</text>
<text x="34.0" y="308.0" font-family="Inter, Arial, sans-serif" font-size="12" font-weight="400" fill="#334155">07 Emilia Romagna GP</text>
<line x1="390" y1="304.0" x2="667.9" y2="304.0" stroke="#94a3b8" stroke-width="3" opacity="0.9"/>
<circle cx="624.5" cy="304.0" r="4.4" fill="#059669"/>
<circle cx="667.9" cy="304.0" r="4.0" fill="#334155"/>
<text x="1230.0" y="308.0" font-family="Inter, Arial, sans-serif" font-size="11" font-weight="400" fill="#475569">4.2 / 5.0</text>
<text x="34.0" y="332.0" font-family="Inter, Arial, sans-serif" font-size="12" font-weight="400" fill="#334155">08 Monaco GP</text>
<line x1="390" y1="328.0" x2="755.3" y2="328.0" stroke="#94a3b8" stroke-width="3" opacity="0.9"/>
<circle cx="735.5" cy="328.0" r="4.4" fill="#059669"/>
<circle cx="755.3" cy="328.0" r="4.0" fill="#334155"/>
<text x="1230.0" y="332.0" font-family="Inter, Arial, sans-serif" font-size="11" font-weight="400" fill="#475569">6.2 / 6.6</text>
<text x="34.0" y="356.0" font-family="Inter, Arial, sans-serif" font-size="12" font-weight="400" fill="#334155">09 Spanish GP</text>
<line x1="390" y1="352.0" x2="631.4" y2="352.0" stroke="#94a3b8" stroke-width="3" opacity="0.9"/>
<circle cx="644.7" cy="352.0" r="4.4" fill="#059669"/>
<circle cx="631.4" cy="352.0" r="4.0" fill="#334155"/>
<text x="1230.0" y="356.0" font-family="Inter, Arial, sans-serif" font-size="11" font-weight="400" fill="#475569">4.6 / 4.4</text>
<text x="34.0" y="380.0" font-family="Inter, Arial, sans-serif" font-size="12" font-weight="400" fill="#334155">10 Canadian GP</text>
<line x1="390" y1="376.0" x2="1076.8" y2="376.0" stroke="#94a3b8" stroke-width="3" opacity="0.9"/>
<circle cx="667.4" cy="376.0" r="4.4" fill="#059669"/>
<circle cx="1076.8" cy="376.0" r="4.0" fill="#334155"/>
<text x="1230.0" y="380.0" font-family="Inter, Arial, sans-serif" font-size="11" font-weight="400" fill="#475569">5.0 / 12.4</text>
<text x="34.0" y="404.0" font-family="Inter, Arial, sans-serif" font-size="12" font-weight="400" fill="#334155">11 Austrian GP</text>
<line x1="390" y1="400.0" x2="615.3" y2="400.0" stroke="#94a3b8" stroke-width="3" opacity="0.9"/>
<circle cx="620.1" cy="400.0" r="4.4" fill="#059669"/>
<circle cx="615.3" cy="400.0" r="4.0" fill="#334155"/>
<text x="1230.0" y="404.0" font-family="Inter, Arial, sans-serif" font-size="11" font-weight="400" fill="#475569">4.2 / 4.1</text>
<text x="34.0" y="428.0" font-family="Inter, Arial, sans-serif" font-size="12" font-weight="400" fill="#334155">12 British GP</text>
<line x1="390" y1="424.0" x2="918.2" y2="424.0" stroke="#94a3b8" stroke-width="3" opacity="0.9"/>
<circle cx="919.0" cy="424.0" r="4.4" fill="#059669"/>
<circle cx="918.2" cy="424.0" r="4.0" fill="#334155"/>
<text x="1230.0" y="428.0" font-family="Inter, Arial, sans-serif" font-size="11" font-weight="400" fill="#475569">9.6 / 9.5</text>
<text x="34.0" y="452.0" font-family="Inter, Arial, sans-serif" font-size="12" font-weight="400" fill="#334155">13 Belgian GP</text>
<line x1="390" y1="448.0" x2="788.0" y2="448.0" stroke="#94a3b8" stroke-width="3" opacity="0.9"/>
<circle cx="802.5" cy="448.0" r="4.4" fill="#059669"/>
<circle cx="788.0" cy="448.0" r="4.0" fill="#334155"/>
<text x="1230.0" y="452.0" font-family="Inter, Arial, sans-serif" font-size="11" font-weight="400" fill="#475569">7.4 / 7.2</text>
<text x="34.0" y="476.0" font-family="Inter, Arial, sans-serif" font-size="12" font-weight="400" fill="#334155">14 Hungarian GP</text>
<line x1="390" y1="472.0" x2="779.5" y2="472.0" stroke="#94a3b8" stroke-width="3" opacity="0.9"/>
<circle cx="635.7" cy="472.0" r="4.4" fill="#059669"/>
<circle cx="779.5" cy="472.0" r="4.0" fill="#334155"/>
<text x="1230.0" y="476.0" font-family="Inter, Arial, sans-serif" font-size="11" font-weight="400" fill="#475569">4.4 / 7.0</text>
<text x="34.0" y="500.0" font-family="Inter, Arial, sans-serif" font-size="12" font-weight="400" fill="#334155">15 Dutch GP</text>
<line x1="390" y1="496.0" x2="806.4" y2="496.0" stroke="#94a3b8" stroke-width="3" opacity="0.9"/>
<circle cx="844.7" cy="496.0" r="4.4" fill="#059669"/>
<circle cx="806.4" cy="496.0" r="4.0" fill="#334155"/>
<text x="1230.0" y="500.0" font-family="Inter, Arial, sans-serif" font-size="11" font-weight="400" fill="#475569">8.2 / 7.5</text>
<text x="34.0" y="524.0" font-family="Inter, Arial, sans-serif" font-size="12" font-weight="400" fill="#334155">16 Italian GP</text>
<line x1="390" y1="520.0" x2="954.3" y2="520.0" stroke="#94a3b8" stroke-width="3" opacity="0.9"/>
<circle cx="728.4" cy="520.0" r="4.4" fill="#059669"/>
<circle cx="954.3" cy="520.0" r="4.0" fill="#334155"/>
<text x="1230.0" y="524.0" font-family="Inter, Arial, sans-serif" font-size="11" font-weight="400" fill="#475569">6.1 / 10.2</text>
<text x="34.0" y="548.0" font-family="Inter, Arial, sans-serif" font-size="12" font-weight="400" fill="#334155">17 Azerbaijan GP</text>
<line x1="390" y1="544.0" x2="645.3" y2="544.0" stroke="#94a3b8" stroke-width="3" opacity="0.9"/>
<circle cx="650.0" cy="544.0" r="4.4" fill="#059669"/>
<circle cx="645.3" cy="544.0" r="4.0" fill="#334155"/>
<text x="1230.0" y="548.0" font-family="Inter, Arial, sans-serif" font-size="11" font-weight="400" fill="#475569">4.7 / 4.6</text>
<text x="34.0" y="572.0" font-family="Inter, Arial, sans-serif" font-size="12" font-weight="400" fill="#334155">18 Singapore GP</text>
<line x1="390" y1="568.0" x2="923.4" y2="568.0" stroke="#94a3b8" stroke-width="3" opacity="0.9"/>
<circle cx="1139.4" cy="568.0" r="4.4" fill="#059669"/>
<circle cx="923.4" cy="568.0" r="4.0" fill="#334155"/>
<text x="1230.0" y="572.0" font-family="Inter, Arial, sans-serif" font-size="11" font-weight="400" fill="#475569">13.5 / 9.6</text>
<text x="34.0" y="596.0" font-family="Inter, Arial, sans-serif" font-size="12" font-weight="400" fill="#334155">19 United States GP</text>
<line x1="390" y1="592.0" x2="776.5" y2="592.0" stroke="#94a3b8" stroke-width="3" opacity="0.9"/>
<circle cx="803.1" cy="592.0" r="4.4" fill="#059669"/>
<circle cx="776.5" cy="592.0" r="4.0" fill="#334155"/>
<text x="1230.0" y="596.0" font-family="Inter, Arial, sans-serif" font-size="11" font-weight="400" fill="#475569">7.5 / 7.0</text>
<text x="34.0" y="620.0" font-family="Inter, Arial, sans-serif" font-size="12" font-weight="400" fill="#334155">20 Mexico City GP</text>
<line x1="390" y1="616.0" x2="726.1" y2="616.0" stroke="#94a3b8" stroke-width="3" opacity="0.9"/>
<circle cx="683.8" cy="616.0" r="4.4" fill="#059669"/>
<circle cx="726.1" cy="616.0" r="4.0" fill="#334155"/>
<text x="1230.0" y="620.0" font-family="Inter, Arial, sans-serif" font-size="11" font-weight="400" fill="#475569">5.3 / 6.1</text>
<text x="34.0" y="644.0" font-family="Inter, Arial, sans-serif" font-size="12" font-weight="400" fill="#334155">21 São Paulo GP</text>
<line x1="390" y1="640.0" x2="1152.2" y2="640.0" stroke="#94a3b8" stroke-width="3" opacity="0.9"/>
<circle cx="1053.3" cy="640.0" r="4.4" fill="#059669"/>
<circle cx="1152.2" cy="640.0" r="4.0" fill="#334155"/>
<text x="1230.0" y="644.0" font-family="Inter, Arial, sans-serif" font-size="11" font-weight="400" fill="#475569">12.0 / 13.8</text>
<text x="34.0" y="668.0" font-family="Inter, Arial, sans-serif" font-size="12" font-weight="400" fill="#334155">22 Las Vegas GP</text>
<line x1="390" y1="664.0" x2="1180.0" y2="664.0" stroke="#94a3b8" stroke-width="3" opacity="0.9"/>
<circle cx="1003.2" cy="664.0" r="4.4" fill="#059669"/>
<circle cx="1180.0" cy="664.0" r="4.0" fill="#334155"/>
<text x="1230.0" y="668.0" font-family="Inter, Arial, sans-serif" font-size="11" font-weight="400" fill="#475569">11.1 / 14.3</text>
<text x="34.0" y="692.0" font-family="Inter, Arial, sans-serif" font-size="12" font-weight="400" fill="#334155">23 Qatar GP</text>
<line x1="390" y1="688.0" x2="640.2" y2="688.0" stroke="#94a3b8" stroke-width="3" opacity="0.9"/>
<circle cx="662.1" cy="688.0" r="4.4" fill="#059669"/>
<circle cx="640.2" cy="688.0" r="4.0" fill="#334155"/>
<text x="1230.0" y="692.0" font-family="Inter, Arial, sans-serif" font-size="11" font-weight="400" fill="#475569">4.9 / 4.5</text>
<text x="34.0" y="716.0" font-family="Inter, Arial, sans-serif" font-size="12" font-weight="400" fill="#334155">24 Abu Dhabi GP</text>
<line x1="390" y1="712.0" x2="691.7" y2="712.0" stroke="#94a3b8" stroke-width="3" opacity="0.9"/>
<circle cx="734.5" cy="712.0" r="4.4" fill="#059669"/>
<circle cx="691.7" cy="712.0" r="4.0" fill="#334155"/>
<text x="1230.0" y="716.0" font-family="Inter, Arial, sans-serif" font-size="11" font-weight="400" fill="#475569">6.2 / 5.4</text>
<rect x="650" y="102" width="18" height="8" fill="#059669"/>
<text x="675.0" y="110.0" font-family="Inter, Arial, sans-serif" font-size="12" font-weight="400" fill="#475569">best lap</text>
<rect x="748" y="102" width="18" height="8" fill="#334155"/>
<text x="773.0" y="110.0" font-family="Inter, Arial, sans-serif" font-size="12" font-weight="400" fill="#475569">avg of best 5</text>
</svg>